<svg width="32" height="32" viewBox="0 0 32 32" fill="none" xmlns="http://www.w3.org/2000/svg">
<g id="Group">
<g id="Group_2">
<path id="Vector" d="M15.8706 32.0001L11.9011 25.0381L5.52206 31.4171L0.582937 26.4781L6.96194 20.0991L0 16.1294L25.3961 6.604L15.8706 32.0001Z" fill="#FF9155"/>
</g>
<g id="Group_3">
<g id="Group_4">
<path id="Vector_2" d="M22.3328 0H24.201V3.41056H22.3328V0Z" fill="#FF9155"/>
</g>
</g>
<g id="Group_5">
<g id="Group_6">
<path id="Vector_3" d="M28.5894 7.79907H32V9.66726H28.5894V7.79907Z" fill="#FF9155"/>
</g>
</g>
<g id="Group_7">
<g id="Group_8">
<path id="Vector_4" d="M26.3668 4.31177L28.7781 1.9005L30.0989 3.22131L27.6876 5.63258L26.3668 4.31177Z" fill="#FF9155"/>
</g>
</g>
<g id="Group_9">
<g id="Group_10">
<path id="Vector_5" d="M26.3658 13.1589L27.6867 11.8381L30.0979 14.2494L28.7771 15.5702L26.3658 13.1589Z" fill="#FF9155"/>
</g>
<g id="Group_11">
<path id="Vector_6" d="M16.429 3.21997L17.7499 1.89916L20.1611 4.31043L18.8403 5.63124L16.429 3.21997Z" fill="#FF9155"/>
</g>
</g>
</g>
</svg>
