<svg width="32" height="28" viewBox="0 0 32 28" fill="none" xmlns="http://www.w3.org/2000/svg">
<g id="Group">
<path id="Vector" d="M24.7283 12.6208C20.7188 12.6208 17.4567 15.8829 17.4567 19.8925C17.4567 23.902 20.7187 27.1641 24.7283 27.1641C28.738 27.1641 32 23.9021 32 19.8925C32 15.8828 28.738 12.6208 24.7283 12.6208ZM23.818 23.8808L19.5172 19.58L21.0686 18.0286L23.818 20.778L27.916 16.68L29.4674 18.2314L23.818 23.8808Z" fill="#fff"/>
<path id="Vector_2" d="M24.7283 10.4267C26.2198 10.4267 27.6316 10.7739 28.8878 11.3911V7.05225H0V18.3805H15.384C16.11 13.8773 20.0235 10.4267 24.7283 10.4267Z" fill="#fff"/>
<path id="Vector_3" d="M28.8878 0.835938H0V4.85829H28.8878V0.835938Z" fill="#fff"/>
</g>
</svg>
