<svg width="12" height="12" viewBox="0 0 12 12" fill="none" xmlns="http://www.w3.org/2000/svg">
<path d="M9.68318 0.925363H9.23558V0.472447C9.23558 0.213672 9.02582 0.00390625 8.76704 0.00390625C8.50826 0.00390625 8.2985 0.213672 8.2985 0.472447V0.925363H3.70148V0.472447C3.70148 0.213672 3.49171 0.00390625 3.23293 0.00390625C2.97416 0.00390625 2.76439 0.213672 2.76439 0.472447V0.925363H2.31682C1.03932 0.925363 0 1.96468 0 3.24216V9.68174C0 10.9592 1.03932 11.9986 2.31682 11.9986H9.6832C10.9607 11.9986 12 10.9592 12 9.68174V3.24216C12 1.96468 10.9607 0.925363 9.68318 0.925363ZM2.31682 1.86245H2.76439V2.7761C2.76439 3.03488 2.97416 3.24464 3.23293 3.24464C3.49171 3.24464 3.70148 3.03488 3.70148 2.7761V1.86245H8.29852V2.7761C8.29852 3.03488 8.50829 3.24464 8.76706 3.24464C9.02584 3.24464 9.23561 3.03488 9.23561 2.7761V1.86245H9.6832C10.444 1.86245 11.0629 2.48139 11.0629 3.24216V3.68976H0.937083V3.24216C0.937083 2.48139 1.55603 1.86245 2.31682 1.86245ZM9.68318 11.0615H2.31682C1.55603 11.0615 0.937083 10.4425 0.937083 9.68174V4.62684H11.0629V9.68174C11.0629 10.4425 10.444 11.0615 9.68318 11.0615ZM4.16222 6.46978C4.16222 6.72855 3.95245 6.93832 3.69368 6.93832H2.77222C2.51344 6.93832 2.30368 6.72855 2.30368 6.46978C2.30368 6.211 2.51344 6.00123 2.77222 6.00123H3.69368C3.95243 6.00123 4.16222 6.211 4.16222 6.46978ZM9.69635 6.46978C9.69635 6.72855 9.48658 6.93832 9.2278 6.93832H8.30635C8.04757 6.93832 7.83781 6.72855 7.83781 6.46978C7.83781 6.211 8.04757 6.00123 8.30635 6.00123H9.2278C9.48656 6.00123 9.69635 6.211 9.69635 6.46978ZM6.92661 6.46978C6.92661 6.72855 6.71684 6.93832 6.45807 6.93832H5.53661C5.27784 6.93832 5.06807 6.72855 5.06807 6.46978C5.06807 6.211 5.27784 6.00123 5.53661 6.00123H6.45807C6.71682 6.00123 6.92661 6.211 6.92661 6.46978ZM4.16222 9.23417C4.16222 9.49294 3.95245 9.70271 3.69368 9.70271H2.77222C2.51344 9.70271 2.30368 9.49294 2.30368 9.23417C2.30368 8.97539 2.51344 8.76563 2.77222 8.76563H3.69368C3.95243 8.76563 4.16222 8.97539 4.16222 9.23417ZM9.69635 9.23417C9.69635 9.49294 9.48658 9.70271 9.2278 9.70271H8.30635C8.04757 9.70271 7.83781 9.49294 7.83781 9.23417C7.83781 8.97539 8.04757 8.76563 8.30635 8.76563H9.2278C9.48656 8.76563 9.69635 8.97539 9.69635 9.23417ZM6.92661 9.23417C6.92661 9.49294 6.71684 9.70271 6.45807 9.70271H5.53661C5.27784 9.70271 5.06807 9.49294 5.06807 9.23417C5.06807 8.97539 5.27784 8.76563 5.53661 8.76563H6.45807C6.71682 8.76563 6.92661 8.97539 6.92661 9.23417Z" fill="white" fill-opacity="0.6"/>
</svg>
