<svg width="70" height="70" viewBox="0 0 70 70" fill="none" xmlns="http://www.w3.org/2000/svg">
<g id="cashback (1) 1">
<path id="Vector" d="M51.54 17.4081C51.54 15.4214 51.2089 13.5174 50.588 11.7376C54.8305 13.9934 57.7485 18.4842 57.7485 23.6166C57.7485 31.0254 51.7056 37.0684 44.2967 37.0684C41.5236 37.0684 38.916 36.2199 36.7844 34.7712C38.8333 34.4401 40.7786 33.7572 42.517 32.7638C47.7942 29.8044 51.3951 24.2167 51.54 17.7806V17.4081ZM32.9559 30.8185C33.287 30.8392 33.6181 30.8599 33.9492 30.8599C35.2944 30.8599 36.5982 30.6529 37.8192 30.3011C43.3448 28.6248 47.401 23.4717 47.401 17.4081C47.401 16.4975 47.3182 15.6283 47.132 14.7591C46.8008 13.1035 46.18 11.5721 45.2901 10.2062C42.9102 6.4604 38.7091 3.9563 33.9492 3.9563C26.5404 3.9563 20.4974 9.99925 20.4974 17.4081C20.4974 24.4858 26.0023 30.3011 32.9559 30.8185ZM16.048 37.3374C15.4892 37.1511 14.8891 37.0684 14.2889 37.0684H10.1499C6.73524 37.0684 3.94141 39.8622 3.94141 43.2769V59.7915C3.94141 63.2062 6.73524 66 10.1499 66H14.2889C14.8684 66 15.4479 65.9173 15.9859 65.7517C13.6888 63.8478 12.2194 60.9711 12.2194 57.7634V45.3464C12.2194 42.118 13.7095 39.2207 16.048 37.3374ZM64.3378 41.553C64.0833 41.1991 63.7977 40.8659 63.4624 40.5762C63.0485 40.214 62.5767 39.9036 62.0531 39.6553C61.1425 39.2414 60.1492 39.0965 59.1682 39.1896C58.8247 39.2227 58.4915 39.32 58.1562 39.409C57.5312 39.5745 56.9207 39.8022 56.362 40.1519L48.3074 45.4561L45.3315 47.4159L41.209 50.1642C39.8494 51.0706 38.2517 51.5549 36.6168 51.5549H30.845C29.7067 51.5549 28.7755 50.6236 28.7755 49.4854C28.7755 48.3472 29.7067 47.4159 30.845 47.4159H37.0535C39.3299 47.4159 41.1925 45.5533 41.1925 43.2769C41.1925 41.0356 39.3837 39.2041 37.1549 39.1482C37.1197 39.1482 37.0887 39.1379 37.0535 39.1379H22.5669C22.5173 39.1379 22.4718 39.1544 22.4221 39.1565C21.9833 39.1669 21.557 39.2248 21.1452 39.32C20.9569 39.3634 20.781 39.4297 20.6009 39.4897C20.3422 39.5766 20.0918 39.6739 19.8497 39.7939C19.7462 39.8436 19.6262 39.8684 19.5268 39.9243C19.3944 40.0009 19.2702 40.0919 19.144 40.1768C19.1171 40.1954 19.0902 40.2119 19.0653 40.2285C18.7549 40.4437 18.4611 40.6797 18.1962 40.9466C18.1734 40.9694 18.1548 40.9942 18.132 41.0191C17.9085 41.2488 17.7078 41.4971 17.5215 41.7579C17.4656 41.8365 17.4118 41.9131 17.3601 41.9938C17.1718 42.2856 17 42.5898 16.8613 42.9127C16.8468 42.9478 16.8365 42.9851 16.822 43.0203C16.6999 43.3203 16.6068 43.6328 16.5323 43.9536C16.5116 44.0467 16.4909 44.1399 16.4743 44.233C16.4081 44.5952 16.3626 44.9635 16.3626 45.3443V57.7655V57.7738C16.3626 58.1525 16.4081 58.5188 16.4743 58.8789C16.4909 58.972 16.5095 59.0631 16.5302 59.1541C16.6088 59.5018 16.7082 59.8412 16.8448 60.164C16.8468 60.1702 16.8489 60.1785 16.851 60.1847C16.9938 60.5241 17.1738 60.8408 17.3725 61.1471C17.4118 61.2091 17.4532 61.2671 17.4967 61.3271C17.6974 61.6127 17.9147 61.8817 18.1589 62.128C18.1693 62.1383 18.1775 62.1487 18.1879 62.159C18.4383 62.4074 18.7135 62.6288 19.0033 62.8316C19.086 62.8896 19.1709 62.9413 19.2557 62.9951C19.3406 63.0489 19.4213 63.111 19.5082 63.1607C19.5744 63.1979 19.6531 63.2124 19.7214 63.2476C20.0339 63.4111 20.3609 63.5435 20.7023 63.6532C20.8368 63.6946 20.9631 63.7443 21.0997 63.7774C21.5736 63.8933 22.062 63.9719 22.5732 63.9719H43.8104C44.454 63.9719 45.0811 63.854 45.6854 63.6636C46.1759 63.5084 46.6456 63.2993 47.0844 63.0262C47.3472 62.8627 47.6059 62.6888 47.846 62.486L59.282 52.7159L63.9653 48.7176L64.2757 48.3865C64.9587 47.4759 65.4347 46.048 65.4347 44.9097C65.4347 43.6618 65.0373 42.5091 64.3461 41.5509L64.3378 41.553Z" fill="#FF9155"/>
</g>
</svg>
