<svg width="70" height="70" viewBox="0 0 70 70" fill="none" xmlns="http://www.w3.org/2000/svg">
<g id="cloud 1">
<g id="Group">
<path id="Vector" d="M15.1594 53.9876C15.2687 54.0095 15.3782 54.0095 15.4875 54.0095H17.3688V43.8813C17.3688 40.9938 19.6218 38.6094 22.4657 38.4345C23.0125 32.0032 28.4375 26.9282 35 26.9282C41.5625 26.9282 46.9875 32.0032 47.5343 38.4345C50.3782 38.6094 52.6312 40.9938 52.6312 43.8813V54.0095H54.5125C54.6218 54.0095 54.7313 54.0095 54.8406 53.9876C62.2344 52.8938 67.8125 46.3969 67.8125 38.8719C67.8125 30.8 61.5125 24.1719 53.5719 23.6032C53.1126 19.447 51.2531 15.5751 48.2125 12.5344C44.6687 8.99067 39.9657 7.06567 35 7.06567C25.4187 7.06567 17.5 14.3063 16.4281 23.6032C8.4875 24.1719 2.1875 30.8 2.1875 38.8719C2.1875 46.3969 7.7656 52.8938 15.1594 53.9876Z" fill="#FF9155"/>
<path id="Vector_2" d="M35.0004 30.2095C29.8816 30.2095 25.7035 34.3875 25.7035 39.5063V41.6938H22.8379C21.6348 41.6938 20.6504 42.6782 20.6504 43.8813V60.7469C20.6504 61.9719 21.6348 62.9344 22.8379 62.9344H47.1629C48.366 62.9344 49.3504 61.9719 49.3504 60.7469V43.8813C49.3504 42.6782 48.366 41.6938 47.1629 41.6938H44.2973V39.5063C44.2973 34.3875 40.1192 30.2095 35.0004 30.2095ZM39.9223 41.6938H30.0785V39.5063C30.0785 36.7939 32.2879 34.5845 35.0004 34.5845C37.7129 34.5845 39.9223 36.7939 39.9223 39.5063V41.6938Z" fill="#FF9155"/>
</g>
</g>
</svg>
