<svg width="70" height="70" viewBox="0 0 70 70" fill="none" xmlns="http://www.w3.org/2000/svg">
<g id="anniversary 1" clip-path="url(#clip0_458_14439)">
<g id="Group">
<g id="Group_2">
<path id="Vector" d="M40.4215 18.457C39.039 18.457 37.9141 19.582 37.9141 20.9645V28.2542C37.9141 29.6368 39.039 30.7616 40.4215 30.7616C41.8041 30.7616 42.929 29.6367 42.929 28.2542V20.9645C42.929 19.582 41.8041 18.457 40.4215 18.457Z" fill="#FF9155"/>
<path id="Vector_2" d="M35 0C21.0533 0 9.70703 11.3464 9.70703 25.293C9.70703 31.2006 11.742 36.8137 15.406 41.2891H54.5941C58.258 36.8137 60.293 31.2006 60.293 25.293C60.293 11.3464 48.9467 0 35 0ZM30.577 32.8125C30.577 33.9451 29.6588 34.8633 28.5262 34.8633C27.3937 34.8633 26.4754 33.9451 26.4754 32.8125V18.457H25.0195C23.887 18.457 22.9688 17.5388 22.9688 16.4062C22.9688 15.2737 23.887 14.3555 25.0195 14.3555H28.5262C29.6588 14.3555 30.577 15.2737 30.577 16.4062V32.8125ZM47.0312 28.2543C47.0312 31.8985 44.0664 34.8633 40.4221 34.8633C36.778 34.8633 33.8131 31.8984 33.8131 28.2543V20.9645C33.8131 17.3202 36.778 14.3555 40.4221 14.3555C44.0664 14.3555 47.0312 17.3204 47.0312 20.9645V28.2543Z" fill="#FF9155"/>
</g>
<g id="Group_3">
<path id="Vector_3" d="M33.4746 58.7633H35.2876L34.3853 56.3721L33.4746 58.7633Z" fill="#FF9155"/>
<path id="Vector_4" d="M44.7988 54.2773H43.627C43.6282 54.7273 43.6291 55.17 43.6291 55.3973C43.6291 55.6628 43.6309 56.0927 43.6328 56.521C44.075 56.519 44.5222 56.5173 44.7988 56.5173C45.4822 56.5173 46.0596 56.0045 46.0596 55.3973C46.0596 54.7902 45.4822 54.2773 44.7988 54.2773Z" fill="#FF9155"/>
<path id="Vector_5" d="M66.6915 57.6953L69.8933 48.0899C70.336 46.7619 69.3475 45.3906 67.9478 45.3906H2.05233C0.652608 45.3906 -0.335868 46.7621 0.106827 48.0899L3.30864 57.6953L0.106827 67.3008C-0.335732 68.6286 0.652608 70 2.05233 70H67.9476C69.3475 70 70.3358 68.6286 69.8931 67.3008L66.6915 57.6953ZM19.5053 53.6803L16.694 57.9991L16.6829 62.4837C16.681 63.2378 16.0693 63.8477 15.3158 63.8477C15.3146 63.8477 15.3134 63.8477 15.3124 63.8477C14.5573 63.8457 13.9467 63.2322 13.9485 62.4772L13.9596 57.9973L11.1261 53.6577C10.7132 53.0255 10.8911 52.1783 11.5234 51.7654C12.1556 51.3527 13.0028 51.5305 13.4156 52.1627L15.3259 55.0885L17.2135 52.1886C17.6254 51.5557 18.4724 51.3767 19.1053 51.7887C19.7381 52.2004 19.9172 53.0474 19.5053 53.6803ZM26.1963 56.3281C26.9513 56.3281 27.5635 56.9402 27.5635 57.6953C27.5635 58.4504 26.9513 59.0625 26.1963 59.0625H23.8282V61.1133H26.4937C27.2486 61.1133 27.8609 61.7254 27.8609 62.4805C27.8609 63.2356 27.2486 63.8477 26.4937 63.8477H22.461C21.7061 63.8477 21.0938 63.2356 21.0938 62.4805V52.9102C21.0938 52.1551 21.7061 51.543 22.461 51.543H26.4937C27.2486 51.543 27.8609 52.1551 27.8609 52.9102C27.8609 53.6653 27.2486 54.2773 26.4937 54.2773H23.8282V56.3281H26.1963ZM38.6339 63.7596C37.9275 64.0262 37.1386 63.6696 36.872 62.9632L36.319 61.4977H32.4326L31.873 62.9672C31.6042 63.6728 30.8144 64.0269 30.1088 63.7582C29.4032 63.4895 29.049 62.6996 29.3177 61.994L32.9114 52.5585C32.9152 52.5481 32.9195 52.5377 32.9236 52.5275C33.168 51.93 33.7431 51.5437 34.3886 51.5431H34.3899C35.0349 51.5431 35.61 51.9284 35.8551 52.5252C35.86 52.5373 35.8649 52.5496 35.8694 52.5621L39.4304 61.998C39.6969 62.7041 39.3403 63.493 38.6339 63.7596ZM48.4533 61.5772C48.9522 62.144 48.8971 63.0078 48.3304 63.5067C47.7636 64.0056 46.8998 63.9505 46.4009 63.3836L43.62 60.2241V62.4805C43.62 63.2356 43.0078 63.8477 42.2528 63.8477C41.4979 63.8477 40.8857 63.2356 40.8857 62.4805V52.9102C40.8857 52.1551 41.4979 51.543 42.2528 51.543C42.2534 51.543 42.2539 51.5431 42.2545 51.5431C42.255 51.5431 42.2556 51.543 42.2561 51.543H44.7994C47.0023 51.543 48.7946 53.272 48.7946 55.3973C48.7946 57.0497 47.7109 58.4622 46.1934 59.0092L48.4533 61.5772ZM59.0451 60.6513C58.7143 62.5034 56.9526 63.8477 54.856 63.8477C53.1713 63.8477 51.5891 63.168 50.5154 61.9831C50.0084 61.4235 50.051 60.5589 50.6105 60.0519C51.17 59.545 52.0347 59.5875 52.5416 60.147C53.0899 60.7519 53.955 61.1131 54.856 61.1131C55.6768 61.1131 56.2721 60.6238 56.3532 60.1705C56.4597 59.5736 55.5068 59.1726 55.212 59.0639C53.7257 58.5156 52.4057 57.9281 52.3501 57.9034C52.2843 57.874 52.2209 57.8394 52.1603 57.8C51.0964 57.1063 50.5481 55.8899 50.7297 54.6256C50.9225 53.2826 51.9018 52.1894 53.2852 51.7725C55.8499 51.0002 58.1208 52.3361 58.6193 53.2689C58.9753 53.9349 58.7239 54.7632 58.0579 55.1191C57.465 55.436 56.7434 55.2713 56.341 54.7616C56.1755 54.6366 55.2795 54.0276 54.074 54.3907C53.5569 54.5464 53.4558 54.8786 53.4363 55.0141C53.4207 55.1227 53.4233 55.3153 53.5907 55.4619C53.9486 55.6183 55.015 56.0768 56.1582 56.4985C58.6681 57.4245 59.2951 59.2508 59.0451 60.6513Z" fill="#FF9155"/>
</g>
</g>
</g>
<defs>
<clipPath id="clip0_458_14439">
<rect width="70" height="70" fill="white"/>
</clipPath>
</defs>
</svg>
