<svg width="70" height="70" viewBox="0 0 70 70" fill="none" xmlns="http://www.w3.org/2000/svg">
<g id="service-feature-icon-2 1" clip-path="url(#clip0_453_13850)">
<g id="Clip path group">
<mask id="mask0_453_13850" style="mask-type:luminance" maskUnits="userSpaceOnUse" x="0" y="0" width="70" height="70">
<g id="clip0_122_4408">
<path id="Vector" d="M70 0H0V70H70V0Z" fill="white"/>
</g>
</mask>
<g mask="url(#mask0_453_13850)">
<g id="Group">
<path id="Vector_2" d="M70.0065 24.7929V0.0870361H34.3203V24.7929H50.1045V28.9105H46.6732V33.0283H57.6535V28.9105H54.2223V24.7929H70.0065Z" fill="#FF9155"/>
<path id="Vector_3" d="M33.627 57.7322V53.6146C42.7088 53.6146 50.0976 46.2259 50.0976 37.144H54.2152C54.2152 48.4963 44.9794 57.7322 33.627 57.7322Z" fill="#FF9155"/>
<path id="Vector_4" d="M13.0356 28.9095H8.91797C8.91797 17.5572 18.1539 8.32129 29.5061 8.32129V12.4389C20.4243 12.4389 13.0356 19.8276 13.0356 28.9095Z" fill="#FF9155"/>
<path id="Vector_5" d="M14.9608 33.03C6.71135 33.03 0 39.7414 0 47.9908C0 58.5749 13.1651 68.5706 13.7255 68.9908L14.9608 69.9173L16.1961 68.9908C16.7566 68.5706 29.9215 58.5749 29.9215 47.9908C29.9215 39.7414 23.2102 33.03 14.9608 33.03ZM15.098 54.9908C11.3139 54.9908 8.23529 51.9122 8.23529 48.1281C8.23529 44.3439 11.3139 41.2654 15.098 41.2654C18.8822 41.2654 21.9607 44.3439 21.9607 48.1281C21.9607 51.9122 18.8822 54.9908 15.098 54.9908Z" fill="#FF9155"/>
<path id="Vector_6" d="M15.0986 50.8746C16.6147 50.8746 17.8437 49.6456 17.8437 48.1295C17.8437 46.6135 16.6147 45.3844 15.0986 45.3844C13.5825 45.3844 12.3535 46.6135 12.3535 48.1295C12.3535 49.6456 13.5825 50.8746 15.0986 50.8746Z" fill="#FF9155"/>
</g>
</g>
</g>
</g>
<defs>
<clipPath id="clip0_453_13850">
<rect width="70" height="70" fill="white"/>
</clipPath>
</defs>
</svg>
