<svg width="70" height="70" viewBox="0 0 70 70" fill="none" xmlns="http://www.w3.org/2000/svg">
<g id="service-feature-icon-5 1" clip-path="url(#clip0_453_13861)">
<path id="Vector" d="M23.6518 33.7695C19.1283 33.7695 15.4482 30.0895 15.4482 25.5661C15.4482 21.0426 19.1283 17.3626 23.6518 17.3626C28.1752 17.3626 31.8553 21.0426 31.8553 25.5661C31.8553 30.0895 28.1752 33.7695 23.6518 33.7695ZM23.6518 22.8316C22.1439 22.8316 20.9172 24.0582 20.9172 25.5661C20.9172 27.0739 22.1439 28.3005 23.6518 28.3005C25.1595 28.3005 26.3863 27.0739 26.3863 25.5661C26.3863 24.0582 25.1597 22.8316 23.6518 22.8316ZM46.2116 52.9112C41.688 52.9112 38.008 49.2312 38.008 44.7076C38.008 40.1843 41.688 36.5041 46.2116 36.5041C50.7349 36.5041 54.4151 40.1843 54.4151 44.7076C54.4151 49.2312 50.7349 52.9112 46.2116 52.9112ZM46.2116 41.9731C44.7037 41.9731 43.477 43.1999 43.477 44.7076C43.477 46.2155 44.7037 47.4422 46.2116 47.4422C47.7193 47.4422 48.946 46.2155 48.946 44.7076C48.946 43.1999 47.7195 41.9731 46.2116 41.9731ZM29.2398 51.5439L46.9772 18.7297H40.7604L23.023 51.5439H29.2398ZM27.4091 70.0002C26.8308 70.0002 26.2503 69.9253 25.6825 69.7731C23.8692 69.2872 22.335 68.0522 21.4731 66.3847L19.6619 62.8813C19.444 62.4598 18.9983 62.2018 18.5234 62.2239L14.5838 62.4071C12.7076 62.4949 10.8719 61.7831 9.54455 60.4557C8.21721 59.1284 7.50596 57.2917 7.59319 55.4164L7.77654 51.4768C7.79855 51.0031 7.54041 50.556 7.11903 50.3382L3.61558 48.527C1.94805 47.6648 0.713019 46.1306 0.227232 44.3173C-0.258691 42.504 0.0437465 40.5578 1.05688 38.9777L3.18529 35.6575C3.44125 35.2581 3.44125 34.7421 3.18529 34.3426L1.05661 31.0226C0.043473 29.4423 -0.258965 27.4962 0.226959 25.683C0.712745 23.8697 1.9478 22.3353 3.6153 21.4731L7.11876 19.6619C7.54014 19.4442 7.79827 18.9971 7.77627 18.5232L7.59292 14.5837C7.50569 12.7085 8.21693 10.8717 9.54427 9.54441C10.8716 8.21707 12.7088 7.50555 14.5834 7.59305L18.5231 7.77627C18.9953 7.79882 19.4437 7.54028 19.6616 7.11889L21.4728 3.61542C22.3349 1.94792 23.8691 0.712882 25.6822 0.226959C27.4958 -0.258965 29.442 0.043473 31.0222 1.05661L34.3423 3.18502C34.7419 3.44111 35.2578 3.44125 35.6572 3.18502L38.9774 1.05661C40.5575 0.043473 42.5038 -0.258965 44.3173 0.226959C46.1306 0.712882 47.6648 1.94792 48.5269 3.61542L50.3379 7.11876C50.5558 7.54028 51.0003 7.79841 51.4765 7.77627L55.416 7.59305C57.2938 7.5061 59.1281 8.21707 60.4553 9.54441C61.7826 10.8717 62.4939 12.7085 62.4067 14.5837L62.2233 18.5234C62.2012 18.9971 62.4595 19.4442 62.8808 19.6619L66.3843 21.4731C68.0517 22.3352 69.2869 23.8695 69.7727 25.6828C70.2585 27.496 69.9562 29.4422 68.943 31.0225L66.8145 34.3426C66.5586 34.7421 66.5586 35.2581 66.8145 35.6575L68.943 38.9777C69.9562 40.5578 70.2585 42.504 69.7727 44.3173C69.2869 46.1306 68.0517 47.6648 66.3843 48.527L62.8808 50.3382C62.4595 50.5561 62.2012 51.0032 62.2233 51.4771L62.4067 55.4166C62.4939 57.2918 61.7826 59.1285 60.4553 60.4558C59.1278 61.7832 57.2906 62.4948 55.4161 62.4071L51.4765 62.2239C51.0043 62.2025 50.5558 62.4599 50.3379 62.8813L48.5269 66.3848C47.6648 68.0523 46.1306 69.2874 44.3173 69.7733C42.5038 70.2593 40.5577 69.9566 38.9774 68.9436L35.6572 66.8153C35.2578 66.5592 34.7419 66.559 34.3423 66.8153L31.0222 68.9438C29.9369 69.6395 28.6784 70 27.4091 70.0002ZM18.578 56.7537C21.0635 56.7537 23.3719 58.1484 24.5202 60.3701L26.3313 63.8733C26.5463 64.2892 26.9039 64.4385 27.0981 64.4907C27.2924 64.5426 27.6766 64.592 28.0708 64.3396L31.3909 62.211C33.5833 60.8057 36.4166 60.8055 38.609 62.211L41.9291 64.3394C42.3231 64.5919 42.7073 64.5424 42.9018 64.4905C43.096 64.4385 43.4536 64.2891 43.6686 63.8733L45.4796 60.3698C46.6754 58.0565 49.1303 56.64 51.7309 56.7609L55.6704 56.9441C56.1354 56.9658 56.4462 56.7306 56.5883 56.5886C56.7303 56.4465 56.9655 56.1383 56.9438 55.6705L56.7604 51.7311C56.6396 49.1295 58.0563 46.6758 60.3695 45.4799L63.8729 43.6687C64.2888 43.4539 64.4382 43.0961 64.4902 42.9019C64.5421 42.7079 64.5917 42.3234 64.3391 41.9292L62.2107 38.6091C60.8052 36.4167 60.8052 33.5834 62.2107 31.391L64.3391 28.0711C64.5919 27.6768 64.5421 27.2924 64.4902 27.0984C64.4382 26.9042 64.2888 26.5464 63.8729 26.3314L60.3695 24.5204C58.0562 23.3245 56.6396 20.871 56.7604 18.2692L56.9438 14.3297C56.9655 13.8621 56.7303 13.5539 56.5883 13.4118C56.4462 13.2696 56.1405 13.0354 55.6702 13.0563L51.7308 13.2396C49.1293 13.3605 46.6752 11.9439 45.4795 9.6304L43.6689 6.12708C43.4539 5.71116 43.0963 5.56187 42.9021 5.50976C42.7076 5.45767 42.3234 5.40819 41.9294 5.66085L38.6091 7.78939C36.4167 9.19493 33.5834 9.19493 31.391 7.78939L28.0709 5.66098C27.6768 5.40832 27.2925 5.45781 27.0982 5.5099C26.904 5.56185 26.5464 5.7113 26.3314 6.12708L24.5204 9.63054C23.3245 11.9439 20.8707 13.3596 18.2691 13.2396L14.3297 13.0563C13.8645 13.0342 13.5539 13.2698 13.4117 13.4118C13.2696 13.5539 13.0345 13.8621 13.0562 14.3298L13.2396 18.2692C13.3604 20.871 11.9437 23.3246 9.63054 24.5205L6.12708 26.3316C5.71116 26.5466 5.56187 26.9043 5.50976 27.0985C5.45781 27.2925 5.40832 27.6769 5.66085 28.0712L7.78925 31.3912C9.1948 33.5837 9.1948 36.417 7.78925 38.6093L5.66085 41.9294C5.40819 42.3235 5.45781 42.7081 5.50976 42.9021C5.56187 43.0963 5.71116 43.454 6.12708 43.6689L9.63054 45.4801C11.9438 46.676 13.3604 49.1295 13.2396 51.7311L13.0562 55.6707C13.0345 56.1383 13.2696 56.4465 13.4117 56.5886C13.5538 56.7307 13.8603 56.9649 14.3298 56.9441L18.2692 56.7609C18.3723 56.756 18.4753 56.7537 18.578 56.7537Z" fill="#FF9155"/>
</g>
<defs>
<clipPath id="clip0_453_13861">
<rect width="70" height="70" fill="white"/>
</clipPath>
</defs>
</svg>
