<svg width="70" height="70" viewBox="0 0 70 70" fill="none" xmlns="http://www.w3.org/2000/svg">
<path id="Vector" d="M70.0465 47.3772C70.0412 43.1881 68.8758 39.0824 66.6795 35.5152C64.4831 31.948 61.3417 29.0586 57.6035 27.1679C57.4725 35.193 54.2218 42.852 48.5402 48.5213C42.8587 54.1905 35.1929 57.4246 27.1675 57.5382C28.5626 60.3057 30.5113 62.7571 32.8927 64.7406C35.2742 66.724 38.0376 68.1973 41.0118 69.069C43.9859 69.9406 47.1074 70.1921 50.1828 69.8079C53.2581 69.4237 56.2218 68.4118 58.8901 66.8352L69.9056 69.8778L66.8536 58.8623C68.9328 55.3913 70.036 51.4233 70.0465 47.3772ZM53.5091 26.7171C53.5063 22.6071 52.5559 18.553 50.7318 14.8698C48.9077 11.1867 46.259 7.97373 42.9915 5.48049C39.724 2.98724 35.9257 1.28094 31.8916 0.494078C27.8575 -0.292787 23.6964 -0.139065 19.7314 0.943449C15.7664 2.02596 12.1044 4.00809 9.02985 6.73574C5.95531 9.4634 3.55103 12.8632 2.00382 16.671C0.4566 20.4787 -0.191892 24.5919 0.108722 28.6909C0.409335 32.79 1.65096 36.7645 3.73713 40.3058L0.131018 53.3499L13.175 49.7437C17.2358 52.1347 21.8562 53.4103 26.5685 53.4414C31.2808 53.4725 35.9177 52.2579 40.0097 49.9207C44.1017 47.5835 47.5035 44.2067 49.8707 40.132C52.238 36.0574 53.4866 31.4295 53.4903 26.7171H53.5091Z" fill="#FF9155"/>
</svg>
