<svg width="70" height="60" viewBox="0 0 70 60" fill="none" xmlns="http://www.w3.org/2000/svg">
<g id="service-feature-icon-1 1">
<path id="Vector" d="M67.7451 25.7747C66.3031 23.8643 64.3325 22.4831 62.0462 21.781C60.6024 21.3373 59.0728 22.1483 58.6295 23.5917C58.1861 25.0354 58.9969 26.5651 60.4404 27.0085C62.8874 27.7602 64.5312 29.9693 64.5312 32.5057C64.5312 35.6791 61.9199 38.2609 58.7102 38.2609H51.8514C50.5203 30.1613 43.4706 23.9625 35 23.9625C26.5294 23.9625 19.4798 30.1612 18.1488 38.2609H13.4319C9.04108 38.2609 5.46876 34.7256 5.46876 30.3801C5.46876 26.9981 7.64162 23.9976 10.8756 22.9136C12.0319 22.526 12.7918 21.4194 12.7384 20.2011C12.7302 20.0168 12.7262 19.8304 12.7262 19.6467C12.7262 12.7567 18.39 7.15106 25.3521 7.15106C27.8808 7.15106 30.32 7.8877 32.4058 9.28126C33.4426 9.97389 34.8164 9.87763 35.7462 9.04706C38.3214 6.7469 41.651 5.48035 45.1218 5.48035C49.895 5.48035 54.2954 7.85433 56.893 11.8308C57.7192 13.0953 59.4136 13.4505 60.6778 12.6246C61.9421 11.7987 62.2975 10.1042 61.4716 8.83993C57.8602 3.31185 51.7483 0.0115967 45.1218 0.0115967C40.9881 0.0115967 36.9962 1.30851 33.6852 3.69685C31.1224 2.37396 28.2781 1.6823 25.3519 1.6823C15.7618 1.6823 7.89031 9.12772 7.29367 18.5019C2.86208 20.7603 0 25.3163 0 30.3801C0 37.741 6.0256 43.7296 13.4319 43.7296H18.1342C19.428 51.8726 26.4984 58.1171 35 58.1171C43.5016 58.1171 50.572 51.8726 51.8658 43.7294H58.7102C64.9354 43.7294 70 38.6943 70 32.5056C70 30.0568 69.2203 27.7293 67.7451 25.7747ZM35 29.4311C37.2424 29.4311 39.3381 30.0702 41.1149 31.1757L25.1358 47.1546C24.0304 45.3778 23.3913 43.282 23.3913 41.0398C23.3913 34.6388 28.599 29.4311 35 29.4311ZM35 52.6483C32.819 52.6483 30.7765 52.0436 29.0312 50.9932L44.9537 35.071C46.0041 36.8161 46.6088 38.8586 46.6088 41.0396C46.6087 47.4409 41.401 52.6483 35 52.6483Z" fill="#FF9155"/>
</g>
</svg>
