<svg width="39" height="39" viewBox="0 0 39 39" fill="none" xmlns="http://www.w3.org/2000/svg">
<g id="logo-icon 1" clip-path="url(#clip0_509_14852)">
<circle id="Ellipse 133" cx="19.7967" cy="19.0201" r="13.5858" fill="#0F061E"/>
<g id="Layer 2">
<g id="Layer 1">
<path id="Vector" d="M19.4083 0C15.5697 0 11.8173 1.13828 8.62563 3.27089C5.43395 5.40349 2.94634 8.43465 1.47738 11.9811C0.00840928 15.5275 -0.375939 19.4298 0.372933 23.1946C1.12181 26.9595 2.97027 30.4177 5.68456 33.132C8.39886 35.8463 11.8571 37.6948 15.6219 38.4436C19.3868 39.1925 23.2891 38.8082 26.8355 37.3392C30.3819 35.8702 33.4131 33.3826 35.5457 30.1909C37.6783 26.9993 38.8166 23.2469 38.8166 19.4083C38.8166 14.2609 36.7718 9.32431 33.132 5.68455C29.4923 2.0448 24.5557 0 19.4083 0V0ZM8.75702 26.6515L8.30675 14.8357L13.974 19.7266L21.9391 26.6515H8.75702ZM24.2837 26.6515L14.7503 18.3835L19.4083 10.6746L29.0814 26.6515H24.2837ZM30.1294 25.4248L25.8441 18.2981L30.5021 14.8357L30.1294 25.4248Z" fill="url(#paint0_linear_509_14852)"/>
</g>
</g>
</g>
<defs>
<linearGradient id="paint0_linear_509_14852" x1="1.44603e-07" y1="19.4083" x2="38.8166" y2="19.4083" gradientUnits="userSpaceOnUse">
<stop stop-color="#FF7E45"/>
<stop offset="1" stop-color="#FF6550"/>
</linearGradient>
<clipPath id="clip0_509_14852">
<rect width="38.8166" height="38.8166" fill="white"/>
</clipPath>
</defs>
</svg>
