<svg width="1179" height="40" viewBox="0 0 1179 40" fill="none" xmlns="http://www.w3.org/2000/svg">
<path d="M1178.42 24.2201C1175.81 34.6677 1165.23 41.026 1154.78 38.4207C1144.34 35.8159 1137.98 25.2336 1140.58 14.7866C1143.19 4.33774 1153.77 -2.02115 1164.22 0.583597C1174.66 3.18834 1181.02 13.7719 1178.42 24.2201V24.2201Z" fill="white"/>
<path d="M1168.1 16.7233C1168.49 14.1283 1166.51 12.7333 1163.81 11.8027L1164.69 8.28744L1162.55 7.75418L1161.69 11.1768C1161.13 11.0366 1160.55 10.9044 1159.98 10.7734L1160.84 7.32818L1158.7 6.79492L1157.82 10.3089C1157.36 10.2029 1156.9 10.0981 1156.46 9.98778L1156.46 9.97681L1153.51 9.23999L1152.94 11.5254C1152.94 11.5254 1154.53 11.8892 1154.49 11.9118C1155.36 12.1281 1155.52 12.7016 1155.49 13.1562L1154.49 17.1609C1154.55 17.1761 1154.63 17.1981 1154.71 17.2322C1154.64 17.2145 1154.57 17.195 1154.49 17.1761L1153.09 22.786C1152.98 23.0493 1152.71 23.4442 1152.11 23.2943C1152.13 23.3254 1150.55 22.9061 1150.55 22.9061L1149.49 25.3554L1152.27 26.0496C1152.79 26.1794 1153.3 26.3153 1153.8 26.4433L1152.91 29.9987L1155.05 30.532L1155.93 27.0143C1156.51 27.1728 1157.08 27.319 1157.63 27.4568L1156.76 30.958L1158.9 31.4913L1159.79 27.9425C1163.43 28.633 1166.18 28.3545 1167.33 25.0543C1168.26 22.3972 1167.29 20.8645 1165.37 19.865C1166.76 19.5426 1167.82 18.6229 1168.1 16.7233V16.7233ZM1163.21 23.5789C1162.55 26.2361 1158.07 24.7996 1156.62 24.4394L1157.8 19.7291C1159.25 20.0911 1163.9 20.8078 1163.21 23.5789ZM1163.87 16.6849C1163.27 19.1019 1159.54 17.8739 1158.34 17.5729L1159.4 13.3007C1160.61 13.6018 1164.5 14.1637 1163.87 16.6849Z" fill="#16081A"/>
<path d="M1095.47 14.1668C1095.47 16.4067 1093.65 18.2223 1091.41 18.2223C1089.17 18.2223 1087.36 16.4067 1087.36 14.1668C1087.36 11.9269 1089.17 10.1113 1091.41 10.1113C1093.65 10.1349 1095.47 11.9504 1095.47 14.1668Z" fill="white"/>
<path d="M1095.47 26.8524C1095.47 29.0923 1093.65 30.9078 1091.41 30.9078C1089.17 30.9078 1087.36 29.0923 1087.36 26.8524C1087.36 24.6124 1089.17 22.7969 1091.41 22.7969C1093.65 22.7969 1095.47 24.6124 1095.47 26.8524Z" fill="white"/>
<path d="M963.596 15.9584H960.366V8.24826H963.596C965.883 8.24826 967.18 9.85159 967.18 12.1387C967.18 14.6144 965.742 15.9584 963.596 15.9584ZM964.304 3.57975H954V30.4355H960.39V20.6269H964.327C969.515 20.6269 973.405 17.3967 973.405 11.9029C973.381 7.16366 970.458 3.57975 964.304 3.57975ZM1006.93 10.5825L1002.64 22.4424L997.714 10.5825H991.348L999.742 29.4924L997.125 36H1003.04L1013.11 10.5825H1006.93ZM1052.93 9.78086V10.6061H1049.63V14.8502H1052.93V30.4591H1059.11V14.8502H1063.4V10.6061H1059.11V9.54507C1059.11 7.80027 1059.82 6.55062 1061.73 6.55062C1062.32 6.55062 1063.05 6.66851 1063.57 6.83356V2.40083C1062.72 2.16505 1061.73 2 1060.62 2C1055.6 2 1052.93 5.06518 1052.93 9.78086ZM1041.62 26.0735C1041.03 26.4979 1040.13 26.8516 1039.17 26.8516C1037.61 26.8516 1036.55 25.9556 1036.55 24.5173C1036.55 22.8904 1037.84 21.2871 1041.62 21.9001V26.0735ZM1040.41 10.1345C1036.57 10.1345 1033.53 11.337 1031.67 12.5159L1033.39 16.0527C1034.52 15.5576 1036.9 14.6616 1038.91 14.6616C1040.34 14.6616 1041.64 15.1567 1041.64 16.6893V18.0097C1033.06 17.3967 1030.58 21.1692 1030.58 24.6588C1030.58 28.0777 1033.46 30.9307 1037.26 30.9307C1038.76 30.9307 1040.39 30.3648 1041.62 29.5867V30.4591H1047.84V16.6422C1047.87 12.1387 1045.01 10.1345 1040.41 10.1345ZM984.982 26.0735C984.393 26.4979 983.497 26.8516 982.53 26.8516C980.974 26.8516 979.913 25.9556 979.913 24.5173C979.913 22.8904 981.209 21.2871 984.982 21.9001V26.0735ZM983.544 10.1345C979.7 10.1345 976.659 11.337 974.796 12.5159L976.517 16.0527C977.649 15.5576 980.031 14.6616 982.035 14.6616C983.473 14.6616 984.77 15.1567 984.77 16.6893V18.0097C976.164 17.3731 973.712 21.1456 973.712 24.6352C973.712 28.0541 976.588 30.9071 980.384 30.9071C981.893 30.9071 983.52 30.3412 984.746 29.5631V30.4355H990.971V16.6186C990.994 12.1387 988.141 10.1345 983.544 10.1345ZM1019.55 16.1942C1019.55 15.251 1020.49 14.6852 1022.05 14.6852C1023.67 14.6852 1025.4 15.2746 1026.64 15.8169L1028.39 11.7379C1026.76 10.9126 1024.26 10.1345 1021.74 10.1345C1017.12 10.1345 1013.37 12.233 1013.37 16.43C1013.37 23.0555 1022.71 21.8294 1022.71 24.7531C1022.71 25.8377 1021.62 26.38 1019.78 26.38C1017.92 26.38 1016.13 25.767 1014.71 25.0596L1012.73 29.068C1015.07 30.3176 1017.8 30.9071 1020.33 30.9071C1024.83 30.9071 1028.74 28.5728 1028.74 24.2816C1028.72 17.7503 1019.55 18.835 1019.55 16.1942ZM1073.71 14.4965C1075.43 14.4965 1076.77 15.8641 1077.01 18.5049H1070.38C1070.64 15.8405 1072.01 14.4965 1073.71 14.4965ZM1083.3 21.7587V20.2025C1083.3 14.3786 1079.22 10.111 1073.71 10.111C1068.19 10.111 1063.9 14.5201 1063.9 20.6269C1063.9 26.8987 1067.95 30.9071 1074.41 30.9071C1076.21 30.9071 1079.79 30.577 1082.53 28.6907L1080.78 24.8239C1078.92 25.8849 1077.03 26.3565 1075.33 26.3565C1075.19 26.3565 1075.05 26.3564 1074.91 26.3329C1074.89 26.3329 1074.84 26.3329 1074.82 26.3329C1074.67 26.3329 1074.56 26.3093 1074.41 26.2857C1074.39 26.2857 1074.37 26.2857 1074.32 26.2621C1074.2 26.2386 1074.11 26.2386 1074.01 26.215C1073.97 26.215 1073.94 26.1914 1073.9 26.1914C1073.78 26.1678 1073.68 26.1442 1073.59 26.0971C1073.54 26.0735 1073.47 26.0735 1073.42 26.0499C1073.35 26.0263 1073.28 26.0028 1073.21 25.9792C1073.14 25.9556 1073.05 25.9085 1072.98 25.8849C1072.95 25.8849 1072.93 25.8613 1072.91 25.8613C1072.79 25.7906 1072.65 25.7434 1072.55 25.6727C1072.29 25.5076 1072.06 25.3426 1071.84 25.1304C1071.75 25.0596 1071.68 24.9653 1071.61 24.871C1071.59 24.8474 1071.54 24.8003 1071.51 24.7767C1071.47 24.7295 1071.42 24.6588 1071.4 24.6117C1071.33 24.5173 1071.26 24.423 1071.18 24.3051C1070.78 23.6449 1070.52 22.8197 1070.43 21.7822H1083.3V21.7587Z" fill="white"/>
<path fill-rule="evenodd" clip-rule="evenodd" d="M267.26 32.8576L268.085 32.8292L268.91 32.7723L269.706 32.6585L270.474 32.5163L271.242 32.3456L272.01 32.1465L272.749 31.8905L273.489 31.6061L274.2 31.2647L274.883 30.9234L275.537 30.5252L276.191 30.127L276.817 29.6719L277.414 29.2168L277.983 28.7048L278.552 28.1643L279.093 27.6239L279.576 27.055L280.06 26.4292L280.486 25.8034L280.913 25.1777L281.311 24.495L281.653 23.8123L281.965 23.1012L282.25 22.3901L282.506 21.6506L282.733 20.8826L282.904 20.1146L283.046 19.3181L283.132 18.5217L283.189 17.7253L283.217 16.9004L283.189 16.0755L283.132 15.279L283.046 14.4826L282.904 13.6862L282.733 12.9182L282.506 12.1786L282.25 11.4391L281.965 10.728L281.653 10.0168L281.311 9.33418L280.913 8.65152L280.486 8.02574L280.06 7.39997L279.576 6.80264L279.093 6.20531L278.552 5.66487L277.983 5.12442L277.414 4.64087L276.817 4.15732L276.191 3.70221L275.537 3.30399L274.883 2.93421L274.2 2.56444L273.489 2.25155L272.749 1.96711L272.01 1.71111L271.242 1.48355L270.474 1.31289L269.706 1.17067L268.91 1.08533L268.085 1.02844L267.26 1L266.463 1.02844L265.638 1.08533L264.842 1.17067L264.074 1.31289L263.306 1.48355L262.538 1.71111L261.798 1.96711L261.087 2.25155L260.376 2.56444L259.694 2.93421L259.011 3.30399L258.385 3.70221L257.759 4.15732L257.162 4.64087L256.565 5.12442L256.024 5.66487L255.484 6.20531L255 6.80264L254.517 7.39997L254.09 8.02574L253.663 8.65152L253.294 9.33418L252.924 10.0168L252.611 10.728L252.326 11.4391L252.099 12.1786L251.871 12.9182L251.701 13.6862L251.558 14.4826L251.445 15.279L251.388 16.0755L251.359 16.9004L251.388 17.7253L251.445 18.5217L251.558 19.3181L251.701 20.1146L251.871 20.8826L252.099 21.6506L252.326 22.3901L252.611 23.1012L252.924 23.8123L253.294 24.495L253.663 25.1777L254.09 25.8034L254.517 26.4292L255 27.055L255.484 27.6239L256.024 28.1643L256.565 28.7048L257.162 29.2168L257.759 29.6719L258.385 30.127L259.011 30.5252L259.694 30.9234L260.376 31.2647L261.087 31.6061L261.798 31.8905L262.538 32.1465L263.306 32.3456L264.074 32.5163L264.842 32.6585L265.638 32.7723L266.463 32.8292L267.26 32.8576Z" fill="white"/>
<path fill-rule="evenodd" clip-rule="evenodd" d="M245.957 32.8576L246.782 32.8292L247.579 32.7723L248.375 32.6585L249.171 32.5163L249.939 32.3456L250.707 32.1465L251.447 31.8905L252.158 31.6061L252.869 31.2647L253.552 30.9234L254.206 30.5252L254.86 30.127L255.486 29.6719L256.083 29.2168L256.652 28.7048L257.221 28.1643L257.733 27.6239L258.245 27.055L258.7 26.4292L259.155 25.8034L259.554 25.1777L259.952 24.495L260.293 23.8123L260.606 23.1012L260.891 22.3901L261.147 21.6506L261.374 20.8826L261.545 20.1146L261.687 19.3181L261.772 18.5217L261.829 17.7253L261.858 16.9004L261.829 16.0755L261.772 15.279L261.687 14.4826L261.545 13.6862L261.374 12.9182L261.147 12.1786L260.891 11.4391L260.606 10.728L260.293 10.0168L259.952 9.33418L259.554 8.65152L259.155 8.02574L258.7 7.39997L258.245 6.80264L257.733 6.20531L257.221 5.66487L256.652 5.12442L256.083 4.64087L255.486 4.15732L254.86 3.70221L254.206 3.30399L253.552 2.93421L252.869 2.56444L252.158 2.25155L251.447 1.96711L250.707 1.71111L249.939 1.48355L249.171 1.31289L248.375 1.17067L247.579 1.08533L246.782 1.02844L245.957 1L245.132 1.02844L244.336 1.08533L243.539 1.17067L242.743 1.31289L241.975 1.48355L241.236 1.71111L240.468 1.96711L239.756 2.25155L239.045 2.56444L238.363 2.93421L237.68 3.30399L237.054 3.70221L236.428 4.15732L235.831 4.64087L235.234 5.12442L234.693 5.66487L234.153 6.20531L233.641 6.80264L233.186 7.39997L232.731 8.02574L232.332 8.65152L231.934 9.33418L231.593 10.0168L231.252 10.728L230.967 11.4391L230.711 12.1786L230.512 12.9182L230.341 13.6862L230.199 14.4826L230.085 15.279L230.028 16.0755L230 16.9004L230.028 17.7253L230.085 18.5217L230.199 19.3181L230.341 20.1146L230.512 20.8826L230.711 21.6506L230.967 22.3901L231.252 23.1012L231.593 23.8123L231.934 24.495L232.332 25.1777L232.731 25.8034L233.186 26.4292L233.641 27.055L234.153 27.6239L234.693 28.1643L235.234 28.7048L235.831 29.2168L236.428 29.6719L237.054 30.127L237.68 30.5252L238.363 30.9234L239.045 31.2647L239.756 31.6061L240.468 31.8905L241.236 32.1465L241.975 32.3456L242.743 32.5163L243.539 32.6585L244.336 32.7723L245.132 32.8292L245.957 32.8576Z" fill="white"/>
<path fill-rule="evenodd" clip-rule="evenodd" d="M254.75 7.11615H263.226V6.23438H255.49L254.75 7.11615Z" fill="white"/>
<path fill-rule="evenodd" clip-rule="evenodd" d="M253.492 9.0213H263.22V8.16797H254.004L253.492 9.0213Z" fill="white"/>
<path fill-rule="evenodd" clip-rule="evenodd" d="M252.531 10.956H263.226V10.0742H252.929L252.531 10.956Z" fill="white"/>
<path fill-rule="evenodd" clip-rule="evenodd" d="M251.898 12.8611H263.219V12.0078H252.154L251.898 12.8611Z" fill="white"/>
<path fill-rule="evenodd" clip-rule="evenodd" d="M252.269 22.158H263.248V21.3047H251.984L252.269 22.158Z" fill="white"/>
<path fill-rule="evenodd" clip-rule="evenodd" d="M253.07 24.0966H263.253V23.2148H252.672L253.07 24.0966Z" fill="white"/>
<path fill-rule="evenodd" clip-rule="evenodd" d="M254.205 26.0018H263.25V25.1484H253.664L254.205 26.0018Z" fill="white"/>
<path fill-rule="evenodd" clip-rule="evenodd" d="M255.799 27.9365H263.252V27.0547H255.031L255.799 27.9365Z" fill="white"/>
<path fill-rule="evenodd" clip-rule="evenodd" d="M251.5 14.7958H263.219V13.9141H251.671L251.5 14.7958Z" fill="white"/>
<path fill-rule="evenodd" clip-rule="evenodd" d="M258.641 20.2568H263.106V19.375H258.811L258.641 20.2568Z" fill="white"/>
<path fill-rule="evenodd" clip-rule="evenodd" d="M258.984 18.3221H263.109V17.4688H259.155L258.984 18.3221Z" fill="white"/>
<path fill-rule="evenodd" clip-rule="evenodd" d="M251.219 17.4688H252.385V18.3221H251.276L251.219 17.4688Z" fill="white"/>
<path fill-rule="evenodd" clip-rule="evenodd" d="M249.054 16.4161H248.969L248.883 16.3877H248.826L248.741 16.3592H248.684H248.627L248.542 16.3308H248.485H248.4L248.314 16.3023H248.229H248.115H248.001H247.888L247.745 16.3308H247.575H247.489L247.376 16.3592L247.29 16.3877L247.205 16.4161L247.12 16.473L247.063 16.5014L247.006 16.5583L246.949 16.6152L246.921 16.6721L246.892 16.729V16.7859V16.8428V16.9281L246.921 16.985L246.977 17.0703L247.006 17.1272L247.12 17.241L247.262 17.3263L247.404 17.3832L247.575 17.4401L247.745 17.497L247.916 17.5539L248.087 17.6108L248.257 17.6961L248.428 17.7814L248.57 17.8952L248.713 18.0374L248.826 18.2081L248.912 18.4072L248.969 18.6348L248.997 18.9477L248.969 19.2605L248.94 19.5165L248.855 19.7441L248.769 19.9432L248.656 20.1139L248.542 20.2845L248.4 20.4268L248.257 20.5405L248.087 20.6259L247.916 20.7112L247.745 20.7965L247.546 20.8534L247.376 20.8819L247.177 20.9103L247.006 20.9388H246.835H246.665H246.437H246.209H246.039H245.84H245.697L245.555 20.9103H245.413L245.299 20.8819H245.185L245.072 20.8534H244.986L244.873 20.825L244.787 20.7965L244.702 20.7681L244.617 20.7396L244.531 20.7112L244.787 19.5165H244.816L244.873 19.545L244.958 19.5734H245.043L245.157 19.6019L245.242 19.6303L245.356 19.6588L245.498 19.6872H245.641L245.783 19.7156L245.925 19.7441H246.067H246.238L246.38 19.7725H246.522L246.693 19.7441L246.835 19.7156L246.977 19.6872L247.063 19.6303L247.148 19.545L247.205 19.4596L247.233 19.3743L247.262 19.289L247.29 19.2321V19.0614L247.262 18.9192L247.148 18.8339L247.034 18.7201L246.864 18.6632L246.665 18.5779L246.465 18.4925L246.266 18.4072L246.039 18.3219L245.84 18.2081L245.641 18.0659L245.47 17.8952L245.356 17.6961L245.242 17.4401L245.185 17.1557L245.214 16.8143L245.242 16.6152L245.271 16.4161L245.328 16.217L245.385 16.0463L245.47 15.8757L245.555 15.7619L245.669 15.6197L245.811 15.5059L245.982 15.3921L246.153 15.3068L246.323 15.2214L246.551 15.1646L246.807 15.1077L247.063 15.0792L247.347 15.0508H247.66H247.859H248.058L248.201 15.0792H248.371H248.485H248.627L248.741 15.1077H248.826L248.912 15.1361H248.997L249.054 15.1646H249.139H249.168H249.225L249.281 15.193H249.31L249.054 16.4161Z" fill="#294B9D"/>
<path d="M249.054 16.4161H248.969L248.883 16.3877H248.826L248.741 16.3592H248.684H248.627L248.542 16.3308H248.485H248.4L248.314 16.3023H248.229H248.115H248.001H247.888L247.745 16.3308H247.575H247.489L247.376 16.3592L247.29 16.3877L247.205 16.4161L247.12 16.473L247.063 16.5014L247.006 16.5583L246.949 16.6152L246.921 16.6721L246.892 16.729V16.7859V16.8428V16.9281L246.921 16.985L246.977 17.0703L247.006 17.1272L247.12 17.241L247.262 17.3263L247.404 17.3832L247.575 17.4401L247.745 17.497L247.916 17.5539L248.087 17.6108L248.257 17.6961L248.428 17.7814L248.57 17.8952L248.713 18.0374L248.826 18.2081L248.912 18.4072L248.969 18.6348L248.997 18.9477L248.969 19.2605L248.94 19.5165L248.855 19.7441L248.769 19.9432L248.656 20.1139L248.542 20.2845L248.4 20.4268L248.257 20.5405L248.087 20.6259L247.916 20.7112L247.745 20.7965L247.546 20.8534L247.376 20.8819L247.177 20.9103L247.006 20.9388H246.835H246.665H246.437H246.209H246.039H245.84H245.697L245.555 20.9103H245.413L245.299 20.8819H245.185L245.072 20.8534H244.986L244.873 20.825L244.787 20.7965L244.702 20.7681L244.617 20.7396L244.531 20.7112L244.787 19.5165H244.816L244.873 19.545L244.958 19.5734H245.043L245.157 19.6019L245.242 19.6303L245.356 19.6588L245.498 19.6872H245.641L245.783 19.7156L245.925 19.7441H246.067H246.238L246.38 19.7725H246.522L246.693 19.7441L246.835 19.7156L246.977 19.6872L247.063 19.6303L247.148 19.545L247.205 19.4596L247.233 19.3743L247.262 19.289L247.29 19.2321V19.0614L247.262 18.9192L247.148 18.8339L247.034 18.7201L246.864 18.6632L246.665 18.5779L246.465 18.4925L246.266 18.4072L246.039 18.3219L245.84 18.2081L245.641 18.0659L245.47 17.8952L245.356 17.6961L245.242 17.4401L245.185 17.1557L245.214 16.8143L245.242 16.6152L245.271 16.4161L245.328 16.217L245.385 16.0463L245.47 15.8757L245.555 15.7619L245.669 15.6197L245.811 15.5059L245.982 15.3921L246.153 15.3068L246.323 15.2214L246.551 15.1646L246.807 15.1077L247.063 15.0792L247.347 15.0508H247.66H247.859H248.058L248.201 15.0792H248.371H248.485H248.627L248.741 15.1077H248.826L248.912 15.1361H248.997L249.054 15.1646H249.139H249.168H249.225L249.281 15.193H249.31L249.054 16.4161Z" stroke="white" stroke-width="0.216" stroke-miterlimit="2.6131"/>
<path fill-rule="evenodd" clip-rule="evenodd" d="M250.31 13.8555H251.818L251.59 15.1639H252.5L252.301 16.387L251.363 16.3586L250.822 19.3452V19.459L250.851 19.5443L250.908 19.6297L250.964 19.6866L251.078 19.715L251.192 19.7434L251.306 19.7719H251.42H251.533H251.647L251.761 19.7434L251.846 19.715H251.903L251.96 19.6866H251.988L251.818 20.6821L251.761 20.7105H251.732L251.704 20.739L251.647 20.7674H251.619L251.59 20.7959L251.533 20.8243H251.476L251.42 20.8528H251.363L251.306 20.8812H251.249H251.164L251.107 20.9097H251.021H250.908H250.509H250.282L250.111 20.8812L249.94 20.8528L249.798 20.8243L249.656 20.7674L249.571 20.7105L249.485 20.6537L249.4 20.5683L249.343 20.5114L249.315 20.3977L249.286 20.3123L249.258 20.227V20.1132V19.9994L249.286 19.8572V19.715L250.31 13.8555Z" fill="#294B9D"/>
<path d="M250.31 13.8555H251.818L251.59 15.1639H252.5L252.301 16.387L251.363 16.3586L250.822 19.3452V19.459L250.851 19.5443L250.908 19.6297L250.964 19.6866L251.078 19.715L251.192 19.7434L251.306 19.7719H251.42H251.533H251.647L251.761 19.7434L251.846 19.715H251.903L251.96 19.6866H251.988L251.818 20.6821L251.761 20.7105H251.732L251.704 20.739L251.647 20.7674H251.619L251.59 20.7959L251.533 20.8243H251.476L251.42 20.8528H251.363L251.306 20.8812H251.249H251.164L251.107 20.9097H251.021H250.908H250.509H250.282L250.111 20.8812L249.94 20.8528L249.798 20.8243L249.656 20.7674L249.571 20.7105L249.485 20.6537L249.4 20.5683L249.343 20.5114L249.315 20.3977L249.286 20.3123L249.258 20.227V20.1132V19.9994L249.286 19.8572V19.715L250.31 13.8555Z" stroke="white" stroke-width="0.216" stroke-miterlimit="2.6131"/>
<path fill-rule="evenodd" clip-rule="evenodd" d="M253.666 18.4072V18.4925V18.6063V18.6917L253.694 18.8054L253.723 18.8908L253.751 19.0045L253.837 19.0899L253.894 19.2036L253.95 19.289L254.036 19.3743L254.121 19.4312L254.235 19.5165L254.32 19.5734L254.434 19.6019L254.548 19.6588L254.633 19.6872H254.775L254.918 19.7156H255.06L255.202 19.7441H255.344H255.486H255.629L255.771 19.7156H255.913L256.055 19.6872L256.198 19.6588L256.368 19.6019L256.51 19.545L256.653 19.4881L256.823 19.4028L256.966 19.289L256.738 20.6259L256.653 20.6543L256.567 20.7112L256.482 20.7396L256.425 20.7681L256.34 20.7965L256.254 20.825L256.169 20.8534H256.084L255.97 20.8819H255.856L255.742 20.9103H255.629H255.486H255.344H255.174H255.003H254.747L254.462 20.8819L254.206 20.8534L253.922 20.7965L253.666 20.7112L253.41 20.5974L253.182 20.4836L252.955 20.313L252.727 20.1423L252.557 19.9148L252.414 19.6588L252.272 19.3743L252.187 19.0614L252.13 18.6917L252.102 18.2934L252.13 17.8668L252.158 17.6961L252.187 17.497L252.215 17.2979L252.301 17.0703L252.358 16.8143L252.471 16.5868L252.585 16.3592L252.727 16.1317L252.898 15.9326L253.126 15.705L253.353 15.5343L253.638 15.3637L253.95 15.2499L254.292 15.1361L254.662 15.0792L255.117 15.0508H255.316L255.543 15.0792L255.771 15.1077L255.97 15.1646L256.198 15.2499L256.397 15.3637L256.596 15.4774L256.766 15.6197L256.937 15.8188L257.079 16.0179L257.165 16.2739L257.25 16.5583L257.307 16.8712V17.241L257.25 17.6677L257.193 18.0943L257.165 18.4357H253.239L253.495 17.3832H255.828L255.856 17.241V17.0988L255.828 16.985L255.799 16.8997L255.771 16.7859L255.742 16.7005L255.686 16.6152L255.629 16.5299L255.572 16.473L255.486 16.4161L255.401 16.3592L255.344 16.3308L255.259 16.3023L255.174 16.2739L255.06 16.2454H254.974H254.861L254.775 16.2739L254.69 16.3023L254.605 16.3308L254.491 16.3592L254.434 16.4161L254.349 16.473L254.263 16.5299L254.206 16.6152L254.15 16.7005L254.064 16.7859L254.036 16.8712L253.979 16.9565L253.95 17.0703L253.922 17.1841L253.894 17.2979L253.666 18.4072Z" fill="#294B9D"/>
<path d="M253.666 18.4072V18.4925V18.6063V18.6917L253.694 18.8054L253.723 18.8908L253.751 19.0045L253.837 19.0899L253.894 19.2037L253.95 19.289L254.036 19.3743L254.121 19.4312L254.235 19.5165L254.32 19.5734L254.434 19.6019L254.548 19.6588L254.633 19.6872H254.775L254.918 19.7156H255.06L255.202 19.7441H255.344H255.486H255.629L255.771 19.7156H255.913L256.055 19.6872L256.198 19.6588L256.368 19.6019L256.51 19.545L256.653 19.4881L256.823 19.4028L256.966 19.289L256.738 20.6259L256.653 20.6543L256.567 20.7112L256.482 20.7396L256.425 20.7681L256.34 20.7965L256.254 20.825L256.169 20.8534H256.084L255.97 20.8819H255.856L255.742 20.9103H255.629H255.486H255.344H255.174H255.003H254.747L254.462 20.8819L254.206 20.8534L253.922 20.7965L253.666 20.7112L253.41 20.5974L253.182 20.4836L252.955 20.313L252.727 20.1423L252.557 19.9148L252.414 19.6588L252.272 19.3743L252.187 19.0614L252.13 18.6917L252.102 18.2934L252.13 17.8668L252.158 17.6961L252.187 17.497L252.215 17.2979L252.301 17.0703L252.358 16.8143L252.471 16.5868L252.585 16.3592L252.727 16.1317L252.898 15.9326L253.126 15.705L253.353 15.5343L253.638 15.3637L253.95 15.2499L254.292 15.1361L254.662 15.0792L255.117 15.0508H255.316L255.543 15.0792L255.771 15.1077L255.97 15.1646L256.198 15.2499L256.397 15.3637L256.596 15.4774L256.766 15.6197L256.937 15.8188L257.079 16.0179L257.165 16.2739L257.25 16.5583L257.307 16.8712V17.241L257.25 17.6677L257.193 18.0943L257.165 18.4357H253.239L253.495 17.3832H255.828L255.856 17.241V17.0988L255.828 16.985L255.799 16.8997L255.771 16.7859L255.742 16.7005L255.686 16.6152L255.629 16.5299L255.572 16.473L255.486 16.4161L255.401 16.3592L255.344 16.3308L255.259 16.3023L255.174 16.2739L255.06 16.2454H254.974H254.861L254.775 16.2739L254.69 16.3023L254.605 16.3308L254.491 16.3592L254.434 16.4161L254.349 16.473L254.263 16.5299L254.206 16.6152L254.15 16.7005L254.064 16.7859L254.036 16.8712L253.979 16.9565L253.95 17.0703L253.922 17.1841L253.894 17.2979L253.666 18.4072Z" stroke="white" stroke-width="0.216" stroke-miterlimit="2.6131"/>
<path fill-rule="evenodd" clip-rule="evenodd" d="M266.498 15.4817L266.412 15.4532L266.355 15.4248L266.27 15.3964L266.185 15.3395L266.128 15.311L266.014 15.2826L265.929 15.2541L265.843 15.2257L265.73 15.1972L265.616 15.1688L265.53 15.1404H265.417L265.274 15.1119H265.161H265.018H264.905H264.762H264.62L264.478 15.1404L264.336 15.1688L264.165 15.1972L264.023 15.2826L263.881 15.3395L263.71 15.4532L263.568 15.567L263.426 15.7092L263.312 15.8799L263.17 16.079L263.056 16.3066L262.942 16.5626L262.828 16.8755L262.743 17.2168L262.714 17.4159V17.5866L262.686 17.7857V17.9848L262.714 18.1555L262.743 18.3261L262.8 18.4968L262.857 18.639L262.942 18.7812L263.027 18.9235L263.141 19.0657L263.283 19.1795L263.426 19.2648L263.596 19.3501L263.767 19.407L263.966 19.4639L264.051 19.4923H264.137L264.222 19.5208H264.336H264.45H264.563H264.706H264.848L264.99 19.4923L265.132 19.4639L265.246 19.4354L265.388 19.407L265.53 19.3217L265.644 19.2648L265.758 19.1795L265.872 19.0941L265.616 20.5163L265.587 20.5448L265.559 20.5732L265.53 20.6017L265.474 20.6586L265.417 20.687L265.331 20.7154L265.246 20.7723L265.161 20.8008L265.018 20.8292L264.876 20.8577L264.734 20.8861L264.535 20.9146H264.336H264.08H263.824L263.511 20.8861H263.255L263.027 20.8292L262.771 20.7439L262.515 20.6301L262.288 20.4879L262.06 20.3457L261.861 20.1466L261.662 19.9474L261.463 19.6914L261.321 19.4354L261.207 19.1226L261.093 18.8097L261.036 18.4399L261.008 18.0701V17.6435L261.093 17.1884L261.122 16.9608L261.178 16.7617L261.235 16.5341L261.292 16.335L261.349 16.1644L261.406 15.9652L261.491 15.7946L261.548 15.6239L261.634 15.4532L261.719 15.311L261.804 15.1688L261.89 15.0266L262.003 14.8844L262.117 14.7421L262.202 14.6284L262.316 14.5146L262.458 14.4008L262.572 14.3155L262.714 14.2301L262.828 14.1448L262.97 14.0595L263.113 13.9741L263.283 13.9173L263.426 13.8604L263.596 13.8035L263.767 13.775L263.938 13.7181L264.108 13.6897L264.307 13.6613L264.506 13.6328H264.677H264.905H265.075H265.246L265.388 13.6613L265.559 13.6897L265.701 13.7181L265.843 13.7466L265.986 13.775L266.128 13.8035L266.242 13.8319L266.355 13.8604L266.441 13.8888L266.526 13.9173L266.611 13.9457L266.668 13.9741L266.725 14.0026H266.754L266.498 15.4817Z" fill="#294B9D"/>
<path d="M266.498 15.4817L266.412 15.4532L266.355 15.4248L266.27 15.3964L266.185 15.3395L266.128 15.311L266.014 15.2826L265.929 15.2541L265.843 15.2257L265.73 15.1972L265.616 15.1688L265.53 15.1404H265.417L265.274 15.1119H265.161H265.018H264.905H264.762H264.62L264.478 15.1404L264.336 15.1688L264.165 15.1972L264.023 15.2826L263.881 15.3395L263.71 15.4532L263.568 15.567L263.426 15.7092L263.312 15.8799L263.17 16.079L263.056 16.3066L262.942 16.5626L262.828 16.8755L262.743 17.2168L262.714 17.4159V17.5866L262.686 17.7857V17.9848L262.714 18.1555L262.743 18.3261L262.8 18.4968L262.857 18.639L262.942 18.7812L263.027 18.9235L263.141 19.0657L263.283 19.1795L263.426 19.2648L263.596 19.3501L263.767 19.407L263.966 19.4639L264.051 19.4923H264.137L264.222 19.5208H264.336H264.45H264.563H264.706H264.848L264.99 19.4923L265.132 19.4639L265.246 19.4354L265.388 19.407L265.53 19.3217L265.644 19.2648L265.758 19.1795L265.872 19.0941L265.616 20.5163L265.587 20.5448L265.559 20.5732L265.53 20.6017L265.474 20.6586L265.417 20.687L265.331 20.7154L265.246 20.7723L265.161 20.8008L265.018 20.8292L264.876 20.8577L264.734 20.8861L264.535 20.9146H264.336H264.08H263.824L263.511 20.8861H263.255L263.027 20.8292L262.771 20.7439L262.515 20.6301L262.288 20.4879L262.06 20.3457L261.861 20.1466L261.662 19.9474L261.463 19.6914L261.321 19.4354L261.207 19.1226L261.093 18.8097L261.036 18.4399L261.008 18.0701V17.6435L261.093 17.1884L261.122 16.9608L261.178 16.7617L261.235 16.5341L261.292 16.335L261.349 16.1644L261.406 15.9652L261.491 15.7946L261.548 15.6239L261.634 15.4532L261.719 15.311L261.804 15.1688L261.89 15.0266L262.003 14.8844L262.117 14.7421L262.202 14.6284L262.316 14.5146L262.458 14.4008L262.572 14.3155L262.714 14.2301L262.828 14.1448L262.97 14.0595L263.113 13.9741L263.283 13.9173L263.426 13.8604L263.596 13.8035L263.767 13.775L263.938 13.7181L264.108 13.6897L264.307 13.6613L264.506 13.6328H264.677H264.905H265.075H265.246L265.388 13.6613L265.559 13.6897L265.701 13.7181L265.843 13.7466L265.986 13.775L266.128 13.8035L266.242 13.8319L266.355 13.8604L266.441 13.8888L266.526 13.9173L266.611 13.9457L266.668 13.9741L266.725 14.0026H266.754L266.498 15.4817Z" stroke="white" stroke-width="0.216" stroke-miterlimit="2.6131"/>
<path fill-rule="evenodd" clip-rule="evenodd" d="M279.718 20.9086H278.21L278.324 20.3112V20.2828L278.239 20.3681L278.153 20.4819L278.068 20.5672L277.954 20.6241L277.869 20.7094L277.784 20.7663L277.67 20.8232L277.584 20.8517L277.471 20.9086L277.357 20.937L277.272 20.9654H277.158L277.044 20.9939H276.959H276.845H276.731L276.447 20.9654L276.191 20.9086L275.963 20.8232L275.736 20.7094L275.565 20.5388L275.366 20.3681L275.224 20.169L275.11 19.9415L274.996 19.7139L274.911 19.4579L274.854 19.1735L274.797 18.9175V18.633V18.3486L274.825 18.0926L274.882 17.8081L274.939 17.4952L275.053 17.1824L275.167 16.9264L275.28 16.6704L275.423 16.4144L275.593 16.2152L275.764 16.0161L275.935 15.8455L276.134 15.6748L276.333 15.5326L276.532 15.4188L276.731 15.3335L276.959 15.2481L277.158 15.2197L277.385 15.1628H277.584H277.755L277.897 15.1913L278.04 15.2197L278.182 15.2481L278.296 15.305L278.409 15.3335L278.523 15.3904L278.608 15.4757L278.694 15.5326L278.779 15.5895L278.836 15.6748L278.921 15.7317L278.95 15.817L279.007 15.8739L279.064 15.9308L279.092 16.0161L279.462 13.8828H280.912L279.718 20.9086Z" fill="#294B9D"/>
<path d="M279.718 20.9086H278.21L278.324 20.3112V20.2828L278.239 20.3681L278.153 20.4819L278.068 20.5672L277.954 20.6241L277.869 20.7094L277.784 20.7663L277.67 20.8232L277.584 20.8517L277.471 20.9086L277.357 20.937L277.272 20.9654H277.158L277.044 20.9939H276.959H276.845H276.731L276.447 20.9654L276.191 20.9086L275.963 20.8232L275.736 20.7094L275.565 20.5388L275.366 20.3681L275.224 20.169L275.11 19.9415L274.996 19.7139L274.911 19.4579L274.854 19.1735L274.797 18.9175V18.633V18.3486L274.825 18.0926L274.882 17.8081L274.939 17.4952L275.053 17.1824L275.167 16.9264L275.28 16.6704L275.423 16.4144L275.593 16.2152L275.764 16.0161L275.935 15.8455L276.134 15.6748L276.333 15.5326L276.532 15.4188L276.731 15.3335L276.959 15.2481L277.158 15.2197L277.385 15.1628H277.584H277.755L277.897 15.1913L278.04 15.2197L278.182 15.2481L278.296 15.305L278.409 15.3335L278.523 15.3904L278.608 15.4757L278.694 15.5326L278.779 15.5895L278.836 15.6748L278.921 15.7317L278.95 15.817L279.007 15.8739L279.064 15.9308L279.092 16.0161L279.462 13.8828H280.912L279.718 20.9086Z" stroke="white" stroke-width="0.216" stroke-miterlimit="2.6131"/>
<path fill-rule="evenodd" clip-rule="evenodd" d="M277.271 19.63L277.413 19.6015L277.555 19.5731L277.697 19.5446L277.811 19.4878L277.925 19.4309L278.039 19.3455L278.153 19.2318L278.238 19.1464L278.323 19.0326L278.38 18.9189L278.465 18.8051L278.522 18.6629L278.579 18.5491L278.608 18.4069L278.636 18.2646L278.665 18.094L278.693 17.9518L278.721 17.8095V17.6673V17.4967L278.693 17.3544L278.665 17.2407L278.636 17.0984L278.608 16.9847L278.551 16.8709L278.465 16.7571L278.409 16.6718L278.323 16.6149L278.238 16.5295L278.153 16.5011L278.039 16.4727H277.925H277.783L277.641 16.5011L277.527 16.5295L277.385 16.5864L277.299 16.6718L277.185 16.7571L277.1 16.8424L277.015 16.9278L276.929 17.07L276.844 17.1838L276.787 17.2975L276.702 17.4398L276.673 17.582L276.617 17.7527L276.588 17.8949L276.531 18.0655V18.2931V18.5491L276.56 18.8051L276.645 19.0611L276.73 19.2886L276.873 19.4593L277.072 19.5731L277.271 19.63Z" fill="white"/>
<path fill-rule="evenodd" clip-rule="evenodd" d="M244.275 19.7174L244.076 20.912H242.711L242.768 20.7129V20.5138L242.796 20.3431L242.825 20.2862L242.739 20.3716L242.654 20.4569L242.569 20.5138L242.455 20.5991L242.313 20.6845L242.17 20.7413L242.057 20.7982L241.886 20.8551L241.744 20.912L241.601 20.9405L241.431 20.9689L241.26 20.9973H241.118L240.947 21.0258L240.805 20.9973L240.663 20.9689L240.464 20.9405L240.293 20.8836L240.151 20.7982L240.009 20.7129L239.895 20.6276L239.781 20.5422L239.696 20.4285L239.639 20.3431L239.582 20.2294L239.525 20.0871L239.468 19.9734L239.44 19.8596L239.411 19.7458V19.6036L239.383 19.4898V19.376L239.411 19.1769L239.44 18.9778L239.497 18.7787L239.553 18.608L239.639 18.4374L239.753 18.2667L239.866 18.1245L239.98 17.9822L240.122 17.8685L240.265 17.7547L240.435 17.6409L240.577 17.5556L240.748 17.4987L240.947 17.4418L241.118 17.3849L241.317 17.3565H241.345L241.374 17.328H241.431H241.516H241.573L241.658 17.2996H241.744H241.857L241.943 17.2711H242.028H242.113L242.199 17.2427H242.284H242.369H242.426H242.54H242.682H242.796H242.91L242.995 17.2711H243.081H243.137L243.166 17.2427L243.194 17.1289L243.223 17.0151V16.9298V16.816L243.166 16.7023L243.109 16.5885L243.024 16.5316L242.91 16.4463L242.796 16.3894L242.654 16.3609H242.54H242.369L242.227 16.3325H242.057L241.886 16.3609H241.687L241.516 16.3894H241.345L241.203 16.4178L241.033 16.4463L240.862 16.4747L240.748 16.5031L240.606 16.5316L240.492 16.56L240.378 16.5885L240.321 16.6169L240.265 16.6454L240.634 15.3654L240.748 15.3085L240.862 15.28L241.004 15.2232L241.118 15.1947L241.26 15.1663H241.402L241.545 15.1378L241.687 15.1094H241.829H242H242.142H242.313H242.483H242.654H242.853H243.052H243.194L243.365 15.1378L243.536 15.1947L243.706 15.2232L243.849 15.3085L244.019 15.3654L244.19 15.4792L244.332 15.5645L244.474 15.6783L244.588 15.8205L244.702 15.9627L244.787 16.1334L244.816 16.304L244.873 16.4747V16.6738L244.816 16.9014L244.275 19.7174Z" fill="#294B9D"/>
<path d="M244.275 19.7174L244.076 20.912H242.711L242.768 20.7129V20.5138L242.796 20.3431L242.825 20.2862L242.739 20.3716L242.654 20.4569L242.569 20.5138L242.455 20.5991L242.313 20.6845L242.17 20.7413L242.057 20.7982L241.886 20.8551L241.744 20.912L241.601 20.9405L241.431 20.9689L241.26 20.9973H241.118L240.947 21.0258L240.805 20.9973L240.663 20.9689L240.464 20.9405L240.293 20.8836L240.151 20.7982L240.009 20.7129L239.895 20.6276L239.781 20.5422L239.696 20.4285L239.639 20.3431L239.582 20.2294L239.525 20.0871L239.468 19.9734L239.44 19.8596L239.411 19.7458V19.6036L239.383 19.4898V19.376L239.411 19.1769L239.44 18.9778L239.497 18.7787L239.553 18.608L239.639 18.4374L239.753 18.2667L239.866 18.1245L239.98 17.9822L240.122 17.8685L240.265 17.7547L240.435 17.6409L240.577 17.5556L240.748 17.4987L240.947 17.4418L241.118 17.3849L241.317 17.3565H241.345L241.374 17.328H241.431H241.516H241.573L241.658 17.2996H241.744H241.857L241.943 17.2711H242.028H242.113L242.199 17.2427H242.284H242.369H242.426H242.54H242.682H242.796H242.91L242.995 17.2711H243.081H243.137L243.166 17.2427L243.194 17.1289L243.223 17.0151V16.9298V16.816L243.166 16.7023L243.109 16.5885L243.024 16.5316L242.91 16.4463L242.796 16.3894L242.654 16.3609H242.54H242.369L242.227 16.3325H242.057L241.886 16.3609H241.687L241.516 16.3894H241.345L241.203 16.4178L241.033 16.4463L240.862 16.4747L240.748 16.5031L240.606 16.5316L240.492 16.56L240.378 16.5885L240.321 16.6169L240.265 16.6454L240.634 15.3654L240.748 15.3085L240.862 15.28L241.004 15.2232L241.118 15.1947L241.26 15.1663H241.402L241.545 15.1378L241.687 15.1094H241.829H242H242.142H242.313H242.483H242.654H242.853H243.052H243.194L243.365 15.1378L243.536 15.1947L243.706 15.2232L243.849 15.3085L244.019 15.3654L244.19 15.4792L244.332 15.5645L244.474 15.6783L244.588 15.8205L244.702 15.9627L244.787 16.1334L244.816 16.304L244.873 16.4747V16.6738L244.816 16.9014L244.275 19.7174Z" stroke="white" stroke-width="0.216" stroke-miterlimit="2.6131"/>
<path fill-rule="evenodd" clip-rule="evenodd" d="M242.997 18.3236V18.2952L242.968 18.2667H242.94L242.883 18.2383H242.826H242.741H242.655H242.598H242.513H242.399L242.314 18.2667H242.229H242.172L242.086 18.2952L242.03 18.3236H241.973L241.916 18.3521H241.887L241.83 18.3805L241.774 18.4089L241.688 18.4374L241.631 18.4658L241.546 18.5227L241.489 18.5512L241.404 18.6081L241.318 18.6649L241.262 18.7218L241.205 18.7787L241.148 18.8641L241.119 18.9494L241.091 19.0347L241.062 19.1201V19.2907L241.091 19.4329L241.148 19.5467L241.205 19.6321L241.29 19.6889L241.375 19.7174H241.461H241.546H241.717H241.859L242.001 19.6889L242.115 19.6605L242.229 19.6036L242.342 19.5752L242.428 19.5183L242.513 19.4614L242.57 19.4045L242.655 19.3476L242.684 19.2907L242.741 19.2338L242.769 19.1485L242.798 19.0916L242.826 19.0347L242.854 18.9778L242.883 18.8072L242.94 18.6365L242.968 18.4658L242.997 18.3236Z" fill="white"/>
<path fill-rule="evenodd" clip-rule="evenodd" d="M232.99 20.9097H231.539L232.734 13.8555H235.294L235.521 18.0652L237.285 13.8555H239.93L238.707 20.9097H237.228L238.167 15.6475H238.11L235.919 20.9097H234.27L234.241 20.7105L234.213 20.1132L234.156 19.2883L234.099 18.3212L234.071 17.3541L234.014 16.5292L233.985 15.9035L233.957 15.6475H233.9H233.871L232.99 20.9097Z" fill="#294B9D"/>
<path d="M232.99 20.9097H231.539L232.734 13.8555H235.294L235.521 18.0652L237.285 13.8555H239.93L238.707 20.9097H237.228L238.167 15.6475H238.11L235.919 20.9097H234.27L234.241 20.7105L234.213 20.1132L234.156 19.2883L234.099 18.3212L234.071 17.3541L234.014 16.5292L233.985 15.9035L233.957 15.6475H233.9H233.871L232.99 20.9097Z" stroke="white" stroke-width="0.216" stroke-miterlimit="2.6131"/>
<path fill-rule="evenodd" clip-rule="evenodd" d="M270.958 19.7174L270.73 20.912H269.393V20.7129V20.5138V20.3716V20.2862L269.336 20.3716L269.251 20.4569L269.166 20.5422L269.052 20.5991L268.938 20.6845L268.796 20.7413L268.682 20.7982L268.54 20.8551L268.398 20.912L268.256 20.9405L268.085 20.9689L267.943 20.9973H267.8L267.63 21.0258L267.488 20.9973L267.345 20.9689L267.146 20.9405L266.976 20.8836L266.833 20.7982L266.691 20.7129L266.577 20.6276L266.464 20.5422L266.378 20.4285L266.321 20.3431L266.236 20.2294L266.208 20.0871L266.151 19.9734L266.122 19.8596V19.7458L266.094 19.6036V19.4898V19.376V19.1769L266.122 18.9778L266.179 18.7787L266.236 18.608L266.321 18.4374L266.435 18.2667L266.549 18.1245L266.663 17.9822L266.805 17.8685L266.947 17.7547L267.089 17.6409L267.26 17.5556L267.431 17.4987L267.601 17.4418L267.8 17.3849L267.971 17.3565H268L268.056 17.328H268.113H268.17H268.256L268.312 17.2996H268.426H268.512L268.597 17.2711H268.682H268.796L268.881 17.2427H268.938H269.024H269.08H269.194H269.336H269.45H269.592L269.678 17.2711H269.763H269.82H269.848V17.2427L269.877 17.1289V17.0151V16.9298V16.816L269.82 16.7023L269.763 16.5885L269.678 16.5316L269.592 16.4463L269.479 16.3894L269.336 16.3609H269.223H269.08L268.91 16.3325H268.739L268.568 16.3609H268.398L268.227 16.3894H268.056L267.886 16.4178L267.715 16.4463L267.573 16.4747L267.431 16.5031L267.288 16.5316L267.175 16.56L267.089 16.5885L267.004 16.6169L266.947 16.6454L267.317 15.3654L267.431 15.3085L267.573 15.28L267.687 15.2232L267.829 15.1947L267.943 15.1663H268.085L268.227 15.1378L268.369 15.1094H268.512H268.682H268.824H268.995H269.166H269.336H269.507H269.706H269.848L270.019 15.1378L270.19 15.1947L270.36 15.2232L270.531 15.3085L270.673 15.3654L270.844 15.4792L270.986 15.5645L271.128 15.6783L271.242 15.8205L271.356 15.9627L271.441 16.1334L271.498 16.304L271.527 16.4747V16.6738L271.498 16.9014L270.958 19.7174Z" fill="#294B9D"/>
<path fill-rule="evenodd" clip-rule="evenodd" d="M270.732 20.9703L270.76 20.9419L270.988 19.7472L270.931 19.7188L270.703 20.9134L270.732 20.885V20.9703H270.76V20.9419L270.732 20.9703Z" fill="white"/>
<path fill-rule="evenodd" clip-rule="evenodd" d="M269.336 20.9113L269.393 20.9681H270.73V20.8828H269.393L269.421 20.9113H269.336V20.9681H269.393L269.336 20.9113Z" fill="white"/>
<path fill-rule="evenodd" clip-rule="evenodd" d="M269.421 20.3175L269.393 20.2891L269.364 20.3744V20.5166V20.7157L269.336 20.9148H269.421V20.7157V20.5166V20.3744V20.3175L269.393 20.2891L269.421 20.3175Z" fill="white"/>
<path fill-rule="evenodd" clip-rule="evenodd" d="M267.352 21.0002L267.494 21.0286L267.636 21.0571H267.807L267.949 21.0286L268.12 21.0002L268.262 20.9717L268.404 20.9433L268.546 20.8864L268.688 20.8579L268.831 20.7726L268.973 20.7157L269.087 20.6304L269.2 20.5735L269.286 20.4882L269.371 20.4028L269.428 20.3175L269.4 20.2891L269.314 20.3744L269.229 20.4313L269.144 20.5166L269.03 20.5735L268.916 20.6588L268.802 20.7157L268.66 20.7726L268.546 20.8295L268.404 20.8864L268.233 20.9148L268.091 20.9433L267.949 20.9717H267.807H267.636H267.494L267.352 20.9433V21.0002Z" fill="white"/>
<path fill-rule="evenodd" clip-rule="evenodd" d="M266.039 19.375V19.4888L266.068 19.6026V19.7448L266.096 19.8586L266.124 20.0008L266.181 20.1146L266.21 20.2283L266.295 20.3421L266.352 20.4559L266.437 20.5697L266.551 20.655L266.693 20.7403L266.807 20.8257L266.978 20.911L267.148 20.9679L267.348 20.9963V20.9394L267.177 20.8825L267.006 20.8541L266.864 20.7688L266.722 20.6834L266.608 20.5981L266.494 20.5128L266.409 20.4274L266.352 20.3137L266.295 20.1999L266.238 20.0861L266.181 19.9723L266.153 19.8586V19.7448L266.124 19.6026V19.4888V19.375H266.039Z" fill="white"/>
<path fill-rule="evenodd" clip-rule="evenodd" d="M267.973 17.3281L267.774 17.3566L267.603 17.385L267.433 17.4703L267.262 17.5272L267.092 17.6126L266.921 17.7263L266.779 17.8401L266.636 17.9823L266.523 18.0961L266.409 18.2668L266.295 18.409L266.21 18.5797L266.153 18.7788L266.096 18.9779L266.068 19.177L266.039 19.3761H266.124V19.177L266.153 18.9779L266.21 18.8072L266.267 18.6081L266.352 18.4375L266.466 18.2952L266.58 18.153L266.693 18.0108L266.836 17.897L266.978 17.7832L267.12 17.6979L267.291 17.5841L267.461 17.5272L267.632 17.4703L267.803 17.4135L267.973 17.385V17.3281Z" fill="white"/>
<path fill-rule="evenodd" clip-rule="evenodd" d="M269.086 17.2148H269.029H268.944H268.887H268.801L268.688 17.2433H268.602H268.517L268.432 17.2717H268.318L268.261 17.3002H268.176H268.119H268.062H268.005L267.977 17.3286V17.3855H268.033H268.062L268.119 17.3571H268.176H268.261L268.318 17.3286H268.432H268.517L268.602 17.3002H268.688H268.801H268.887L268.944 17.2717H269.029H269.086V17.2148Z" fill="white"/>
<path fill-rule="evenodd" clip-rule="evenodd" d="M269.797 17.2717L269.854 17.2433H269.825H269.769L269.683 17.2148H269.598H269.456H269.342H269.2H269.086V17.2717H269.2H269.342L269.456 17.3002H269.598H269.683H269.769H269.825H269.854L269.882 17.2717L269.854 17.3002H269.882V17.2717H269.797Z" fill="white"/>
<path fill-rule="evenodd" clip-rule="evenodd" d="M269.854 16.9297V17.015L269.825 17.1288V17.2141L269.797 17.271H269.882V17.2426L269.911 17.1288V17.015L269.939 16.9297H269.854Z" fill="white"/>
<path fill-rule="evenodd" clip-rule="evenodd" d="M269.227 16.385H269.34L269.454 16.4419L269.568 16.4703L269.653 16.5272L269.739 16.6126L269.795 16.6979L269.852 16.8117V16.9255H269.938L269.909 16.7832L269.852 16.6695L269.795 16.5841L269.71 16.4988L269.596 16.4135L269.483 16.3566L269.369 16.3281H269.227V16.385Z" fill="white"/>
<path fill-rule="evenodd" clip-rule="evenodd" d="M266.922 16.646L266.979 16.6745L267.036 16.646L267.093 16.6176L267.178 16.5891L267.292 16.5607L267.434 16.5322L267.576 16.5038L267.718 16.4754L267.889 16.4469L268.06 16.4185H268.23L268.401 16.39H268.572H268.742H268.913H269.084H269.226V16.3331H269.084L268.913 16.3047H268.742L268.572 16.3331H268.401H268.23L268.06 16.3616L267.889 16.39L267.718 16.4185L267.548 16.4469H267.434L267.292 16.4754L267.178 16.5322L267.064 16.5607L266.979 16.5891L266.922 16.6176L266.979 16.646H266.922Z" fill="white"/>
<path fill-rule="evenodd" clip-rule="evenodd" d="M267.32 15.3359L267.292 15.3644L266.922 16.6444H266.979L267.349 15.3644V15.3928L267.32 15.3359H267.292V15.3644L267.32 15.3359Z" fill="white"/>
<path fill-rule="evenodd" clip-rule="evenodd" d="M269.71 15.0792H269.511L269.34 15.0508H269.169H268.999H268.828L268.686 15.0792H268.515H268.373L268.231 15.1077H268.088L267.946 15.1361L267.804 15.1646L267.69 15.193L267.548 15.2214L267.434 15.2783L267.32 15.3352L267.349 15.3921L267.463 15.3352L267.576 15.3068L267.69 15.2499L267.832 15.2214L267.946 15.193H268.088L268.231 15.1646H268.373L268.515 15.1361H268.686H268.828H268.999H269.169H269.34H269.511H269.71V15.0792Z" fill="white"/>
<path fill-rule="evenodd" clip-rule="evenodd" d="M271.56 16.9025L271.588 16.6749V16.4758L271.531 16.2767L271.474 16.106L271.389 15.9354L271.275 15.7931L271.162 15.6509L271.019 15.5371L270.877 15.4518L270.706 15.338L270.536 15.2811L270.365 15.1958L270.194 15.1674L270.024 15.1105L269.853 15.082H269.711V15.1389L269.853 15.1674H270.024L270.166 15.2243L270.337 15.2811L270.507 15.338L270.678 15.3949L270.849 15.4803L270.991 15.594L271.105 15.7078L271.218 15.85L271.332 15.9638L271.418 16.1345L271.474 16.3051L271.503 16.4758V16.6749L271.474 16.9025H271.56Z" fill="white"/>
<path fill-rule="evenodd" clip-rule="evenodd" d="M270.987 19.7429L271.555 16.8984H271.47L270.93 19.7144L270.987 19.7429Z" fill="white"/>
<path fill-rule="evenodd" clip-rule="evenodd" d="M269.648 18.3236V18.2952L269.62 18.2667H269.591L269.534 18.2383H269.477H269.392H269.307H269.221H269.136L269.051 18.2667H268.965H268.908L268.823 18.2952H268.738L268.681 18.3236H268.624H268.596L268.539 18.3521H268.482L268.425 18.3805L268.368 18.4089L268.283 18.4658L268.226 18.4943L268.14 18.5512L268.084 18.5796L267.998 18.6365L267.941 18.6934L267.884 18.7787L267.856 18.8356L267.799 18.9209L267.771 19.0063L267.742 19.1201V19.2907L267.771 19.4329L267.828 19.5467L267.884 19.6321L267.97 19.6889L268.055 19.7174H268.14H268.226H268.396H268.539L268.681 19.6889L268.823 19.6321L268.937 19.6036L269.022 19.5467L269.136 19.4898L269.221 19.4329L269.278 19.3761L269.364 19.3192L269.42 19.2338L269.477 19.1769L269.506 19.1201L269.534 19.0347L269.563 18.9778V18.9209L269.591 18.7787L269.62 18.6081L269.648 18.4658V18.3236Z" fill="white"/>
<path fill-rule="evenodd" clip-rule="evenodd" d="M280.719 20.2005V20.0583L280.776 19.916L280.861 19.8023L280.946 19.6885L281.06 19.5747L281.174 19.5178L281.316 19.4894L281.458 19.4609L281.629 19.4894L281.771 19.5178L281.885 19.5747L281.999 19.6885L282.084 19.8023L282.169 19.916L282.226 20.0583V20.2005H282.056V20.0867L282.027 19.9729L281.97 19.8592L281.913 19.7738L281.828 19.6885L281.714 19.6316L281.601 19.6032H281.458H281.345L281.231 19.6316L281.117 19.6885L281.032 19.7738L280.975 19.8592L280.918 19.9729L280.889 20.0867L280.861 20.2005H280.719Z" fill="white"/>
<path fill-rule="evenodd" clip-rule="evenodd" d="M281.203 20.2007V19.8594H281.488H281.573L281.63 19.8878H281.658L281.715 19.9163L281.744 19.9447V19.9732L281.772 20.03V20.0585V20.1154L281.744 20.1438V20.1723L281.715 20.2007H281.488L281.516 20.1723H281.544H281.601L281.63 20.1438L281.658 20.1154V20.0869V20.0585V20.03L281.63 20.0016H281.601L281.573 19.9732H281.544H281.488H281.345V20.2007H281.203Z" fill="white"/>
<path fill-rule="evenodd" clip-rule="evenodd" d="M280.719 20.2031V20.2316V20.3738L280.776 20.516L280.861 20.6582L280.946 20.772L281.06 20.8573L281.174 20.9142L281.316 20.9711H281.458H281.629L281.771 20.9142L281.885 20.8573L281.999 20.772L282.084 20.6582L282.169 20.516L282.226 20.3738V20.2316V20.2031H282.056V20.2316V20.3453L282.027 20.4591L281.97 20.5729L281.913 20.6582L281.828 20.7436L281.714 20.8005L281.601 20.8289L281.458 20.8573L281.345 20.8289L281.231 20.8005L281.117 20.7436L281.032 20.6582L280.975 20.5729L280.918 20.4591L280.889 20.3453L280.861 20.2316V20.2031H280.719Z" fill="white"/>
<path fill-rule="evenodd" clip-rule="evenodd" d="M281.203 20.2031V20.516H281.345V20.26H281.459L281.63 20.516H281.744L281.573 20.26H281.63L281.658 20.2316H281.687L281.715 20.2031H281.488H281.459H281.345H281.203Z" fill="white"/>
<path d="M280.719 20.2289L280.747 20.0867L280.804 19.9445L280.889 19.8023L280.975 19.6885L281.089 19.6032L281.231 19.5463L281.373 19.4894L281.515 19.4609L281.657 19.4894L281.8 19.5463L281.942 19.6032L282.056 19.6885L282.141 19.8023L282.226 19.9445L282.283 20.0867L282.312 20.2289L282.283 20.3712L282.226 20.5134L282.141 20.6556L282.056 20.7694L281.942 20.8547L281.8 20.9116L281.657 20.9685L281.515 20.9969L281.373 20.9685L281.231 20.9116L281.089 20.8547L280.975 20.7694L280.889 20.6556L280.804 20.5134L280.747 20.3712L280.719 20.2289ZM281.345 20.5134H281.202V19.8592H281.487H281.544H281.601L281.657 19.8876L281.686 19.916L281.714 19.9445L281.743 19.9729V20.0014V20.0298V20.0867V20.1152L281.714 20.1436L281.686 20.172L281.657 20.2005H281.629H281.601H281.572L281.743 20.4565H281.629L281.458 20.2005H281.316V20.5134H281.345ZM281.458 20.2005H281.515H281.544H281.572H281.601L281.629 20.172V20.1436V20.1152V20.0867V20.0583V20.0298H281.601H281.572H281.544H281.515H281.544H281.515H281.345V20.2574H281.458V20.2005ZM281.458 20.8547H281.572L281.686 20.8263L281.8 20.7694L281.885 20.684L281.942 20.5987L281.999 20.4849L282.027 20.3712V20.2289V20.0867L281.999 19.9729L281.942 19.8592L281.885 19.7738L281.8 19.6885L281.686 19.6316L281.572 19.6032H281.458H281.345L281.231 19.6316L281.117 19.6885L281.032 19.7738L280.975 19.8592L280.918 19.9729L280.889 20.0867V20.2289V20.3712L280.918 20.4849L280.975 20.5987L281.032 20.684L281.117 20.7694L281.231 20.8263L281.345 20.8547H281.458Z" stroke="white" stroke-width="0.216" stroke-miterlimit="2.6131"/>
<path fill-rule="evenodd" clip-rule="evenodd" d="M271.359 20.912H272.867L273.407 17.8685L273.436 17.7547L273.464 17.6409L273.493 17.4987L273.55 17.3849L273.606 17.2711L273.663 17.1574L273.72 17.0436L273.806 16.9583L273.919 16.8729L274.005 16.7876L274.147 16.7023L274.289 16.6169L274.431 16.5885L274.602 16.5316L274.801 16.5031H275H275.086H275.114H275.142L275.37 15.1094H275.228L275.086 15.1378L274.943 15.1663L274.83 15.1947L274.716 15.2516L274.602 15.3085L274.488 15.3654L274.374 15.4223L274.289 15.5076L274.204 15.5645L274.118 15.6498L274.033 15.7351L273.948 15.8489L273.862 15.9343L273.777 16.048L273.72 16.1334L273.862 15.1663H272.355L271.359 20.912Z" fill="#294B9D"/>
<path d="M271.359 20.912H272.867L273.407 17.8685L273.436 17.7547L273.464 17.6409L273.493 17.4987L273.55 17.3849L273.606 17.2711L273.663 17.1574L273.72 17.0436L273.806 16.9583L273.919 16.8729L274.005 16.7876L274.147 16.7023L274.289 16.6169L274.431 16.5885L274.602 16.5316L274.801 16.5031H275H275.086H275.114H275.142L275.37 15.1094H275.228L275.086 15.1378L274.943 15.1663L274.83 15.1947L274.716 15.2516L274.602 15.3085L274.488 15.3654L274.374 15.4223L274.289 15.5076L274.204 15.5645L274.118 15.6498L274.033 15.7351L273.948 15.8489L273.862 15.9343L273.777 16.048L273.72 16.1334L273.862 15.1663H272.355L271.359 20.912Z" stroke="white" stroke-width="0.216" stroke-miterlimit="2.6131"/>
<path fill-rule="evenodd" clip-rule="evenodd" d="M257.133 20.912H258.64H258.669L259.181 17.8685L259.209 17.7547L259.238 17.6409L259.266 17.5271L259.295 17.4134L259.351 17.2996L259.38 17.2143L259.465 17.1005L259.522 17.0151L259.607 16.9298L259.721 16.8445L259.835 16.7876L259.949 16.7307L260.119 16.6738L260.29 16.6454L260.461 16.6169L260.66 16.5885H260.688L260.717 16.6169H260.745H260.774H260.802H260.831L260.859 16.5316L260.887 16.4463V16.3325L260.944 16.1903L260.973 16.048L261.03 15.8774L261.087 15.7351L261.115 15.6214L261.172 15.536L261.229 15.4223L261.286 15.3369L261.314 15.2516L261.371 15.1947L261.399 15.1663V15.1378H261.371H261.343L261.314 15.1094H261.286H261.229H261.2H261.143H261.001L260.831 15.1378L260.688 15.1663L260.575 15.1947L260.432 15.2516L260.319 15.28L260.233 15.3369L260.119 15.4223L260.034 15.4792L259.949 15.5645L259.863 15.6498L259.807 15.7351L259.721 15.8205L259.636 15.9343L259.551 16.048L259.465 16.1334L259.664 15.1663H258.128L257.133 20.912Z" fill="#294B9D"/>
<path d="M257.133 20.912H258.64H258.669L259.181 17.8685L259.209 17.7547L259.238 17.6409L259.266 17.5271L259.295 17.4134L259.351 17.2996L259.38 17.2143L259.465 17.1005L259.522 17.0151L259.607 16.9298L259.721 16.8445L259.835 16.7876L259.949 16.7307L260.119 16.6738L260.29 16.6454L260.461 16.6169L260.66 16.5885H260.688L260.717 16.6169H260.745H260.774H260.802H260.831L260.859 16.5316L260.887 16.4463V16.3325L260.944 16.1903L260.973 16.048L261.03 15.8774L261.087 15.7351L261.115 15.6214L261.172 15.536L261.229 15.4223L261.286 15.3369L261.314 15.2516L261.371 15.1947L261.399 15.1663V15.1378H261.371H261.343L261.314 15.1094H261.286H261.229H261.2H261.143H261.001L260.831 15.1378L260.688 15.1663L260.575 15.1947L260.432 15.2516L260.319 15.28L260.233 15.3369L260.119 15.4223L260.034 15.4792L259.949 15.5645L259.863 15.6498L259.807 15.7351L259.721 15.8205L259.636 15.9343L259.551 16.048L259.465 16.1334L259.664 15.1663H258.128L257.133 20.912Z" stroke="white" stroke-width="0.216" stroke-miterlimit="2.6131"/>
<mask id="mask0_273_20" style="mask-type:alpha" maskUnits="userSpaceOnUse" x="459" y="2" width="72" height="31">
<path d="M459.217 2.74609V32.0742H530.875V2.74609H459.217Z" fill="white"/>
</mask>
<g mask="url(#mask0_273_20)">
<mask id="mask1_273_20" style="mask-type:alpha" maskUnits="userSpaceOnUse" x="473" y="21" width="58" height="10">
<path d="M530.92 30.0476V21.6133H473.35V30.0476H530.92Z" fill="white"/>
</mask>
<g mask="url(#mask1_273_20)">
<path d="M528.071 28.347H523.73V30.0429H528.003C529.835 30.0429 530.92 28.9349 530.92 27.3521C530.92 25.837 529.948 24.9552 528.297 24.9552H526.353C525.878 24.9552 525.539 24.6386 525.539 24.1411C525.539 23.6437 525.878 23.3045 526.353 23.3045H530.016L530.762 21.5859H526.398C524.566 21.5859 523.481 22.6939 523.481 24.209C523.481 25.7692 524.498 26.6511 526.104 26.6511H528.049C528.523 26.6511 528.885 26.9676 528.885 27.4651C528.908 28.0078 528.546 28.347 528.071 28.347ZM520.044 28.347H515.725V30.0429H519.999C521.83 30.0429 522.916 28.9349 522.916 27.3521C522.916 25.837 521.943 24.9552 520.293 24.9552H518.303C517.828 24.9552 517.489 24.6386 517.489 24.1411C517.489 23.6437 517.828 23.3045 518.303 23.3045H521.966L522.712 21.5859H518.348C516.516 21.5859 515.431 22.6939 515.431 24.209C515.431 25.7692 516.449 26.6511 518.054 26.6511H519.999C520.473 26.6511 520.835 26.9676 520.835 27.4651C520.858 28.0078 520.519 28.347 520.044 28.347ZM514.481 23.3045V21.5859H507.72V30.0203H514.481V28.3244H509.755V26.6285H514.368V24.9325H509.755V23.2819H514.481V23.3045ZM503.175 23.3271C503.899 23.3271 504.283 23.8019 504.283 24.3672C504.283 24.9552 503.899 25.4074 503.175 25.4074H500.801V23.3271H503.175ZM500.801 26.9903H501.751L504.261 30.0203H506.77L503.967 26.8998C505.391 26.6285 506.25 25.5883 506.25 24.2542C506.25 22.6713 505.12 21.5859 503.333 21.5859H498.743V30.0203H500.778V26.9903H500.801ZM495.623 24.4351C495.623 25.0004 495.261 25.4752 494.56 25.4752H492.14V23.3949H494.56C495.261 23.3949 495.623 23.8472 495.623 24.4351ZM490.105 21.6086V30.0429H492.14V27.2616H494.696C496.55 27.2616 497.68 26.0632 497.68 24.4351C497.68 22.7618 496.55 21.6086 494.763 21.6086H490.105ZM487.12 30.0429H489.653L486.261 25.7918L489.63 21.6086H487.166L485.085 24.2768L483.028 21.6086H480.518L483.887 25.837L480.518 30.0655H482.982L485.063 27.3521L487.12 30.0429ZM480.111 23.3045V21.5859H473.35V30.0203H480.111V28.3244H475.385V26.6285H479.998V24.9325H475.385V23.2819H480.111V23.3045Z" fill="white"/>
</g>
<path d="M519.277 8.17308L519.254 7.47211L519.684 8.17308L522.917 13.2156H525.291V4.78125H523.324V9.66549L523.347 10.2986L522.962 9.66549L519.797 4.78125H517.309V13.2156H519.277V8.17308ZM511.204 7.92435L511.815 6.34149L512.425 7.92435L513.171 9.80117H510.458L511.204 7.92435ZM514.551 13.2156H516.834L513.239 4.78125H510.571L506.953 13.2156H509.101L509.802 11.4066H513.827L514.551 13.2156ZM505.709 13.2156H505.822L506.659 11.4292H506.048C504.669 11.4292 503.832 10.57 503.832 9.05496V8.9419C503.832 7.60778 504.579 6.61284 506.026 6.61284H508.219V4.78125H505.845C503.244 4.78125 501.82 6.52239 501.82 8.91929V9.05496C501.82 11.5875 503.267 13.2156 505.709 13.2156ZM498.519 13.2156H500.554V9.50721V4.78125H498.519V9.46198V13.2156ZM494.267 6.49978C494.991 6.49978 495.375 6.97464 495.375 7.53994C495.375 8.12786 494.991 8.58011 494.267 8.58011H491.893V6.49978H494.267ZM491.893 10.1856H492.843L495.353 13.2156H497.885L495.081 10.0951C496.506 9.82378 497.365 8.78362 497.365 7.44949C497.365 5.86664 496.235 4.78125 494.448 4.78125H489.858V13.2156H491.893V10.1856ZM488.366 6.49978V4.78125H481.627V13.2156H488.388V11.4971H483.64V9.82378H488.253V8.12786H483.64V6.47717H488.366V6.49978ZM471.587 7.44949L471.542 5.16566L473.871 13.2156H475.703L478.032 5.21088L477.987 7.42688V13.193H479.954V4.78125H476.381L474.776 10.7509L473.17 4.78125H469.62V13.2156H471.587V7.44949ZM463.515 7.92435L464.125 6.34149L464.736 7.92435L465.482 9.80117H462.769L463.515 7.92435ZM466.861 13.2156H469.145L465.527 4.78125H462.882L459.264 13.2156H461.412L462.113 11.4066H466.138L466.861 13.2156Z" fill="white"/>
</g>
<g clip-path="url(#clip0_273_20)">
<path d="M396.585 5.24662L403.751 3.93049V31.9563H396.585V5.24662ZM407.05 5.24662V31.995H414.217V3.93049L407.05 5.24662ZM386.422 31.995H393.589V11.4789H386.422V31.995ZM339.1 14.3821C338.189 14.3047 336.104 14.1886 336.104 12.2531C336.104 9.93049 339.137 9.93049 340.237 9.93049C342.209 9.93049 344.787 10.5111 346.645 11.0918C346.645 11.0918 347.669 11.4789 348.541 11.8273L348.617 11.866V11.7886V5.51759L348.503 5.47888C346.342 4.70469 343.801 3.9692 339.137 3.9692C331.061 3.93049 328.217 8.73049 328.217 12.8724C328.217 15.2337 329.203 20.8079 338.455 21.466C339.251 21.5047 341.299 21.6208 341.299 23.6337C341.299 25.2595 339.592 26.2273 336.749 26.2273C333.601 26.2273 330.568 25.4144 328.71 24.6402V31.1821C331.478 31.9176 334.587 32.3047 338.265 32.3047C346.152 32.3047 349.679 27.7757 349.679 23.2466C349.679 18.1369 345.735 14.8466 339.1 14.3821ZM382.365 11.1692C375.767 11.4015 372.392 14.4208 372.392 20.4208V31.9563H379.597V22.5886C379.597 18.9886 380.052 17.4402 384.261 17.2853V11.2853C383.578 11.1305 382.365 11.1692 382.365 11.1692ZM362.95 11.4402C362.799 11.866 361.661 15.1563 358.855 18.5628V3.93049L351.499 5.44017V31.995H358.893V23.7886C361.017 27.0789 362.078 31.995 362.078 31.995H370.913C370.041 28.2789 366.212 21.4273 366.212 21.4273C369.662 16.9757 371.141 12.2531 371.406 11.4402H362.95ZM389.987 9.50469C391.92 9.50469 393.513 7.87888 393.513 5.90469C393.513 3.93049 391.92 2.30469 389.987 2.30469C388.053 2.30469 386.46 3.93049 386.46 5.90469C386.46 7.87888 388.053 9.50469 389.987 9.50469Z" fill="white"/>
</g>
<g clip-path="url(#clip1_273_20)">
<path d="M799.237 5.64844H784.113C781.739 5.64844 779.402 5.64844 777.348 6.58594C775.258 7.52344 773.451 9.36719 772.035 13.0859C771.716 13.8984 771.574 14.5859 771.539 15.1797C771.503 15.7734 771.645 16.3047 771.893 16.7422C772.212 17.2734 772.708 17.8047 773.381 18.2109C774.018 18.6484 774.797 18.9922 775.612 19.2109C775.647 19.2109 776.072 19.3359 776.604 19.4609C777.135 19.5859 777.737 19.7422 778.127 19.8672C778.339 19.9297 778.623 20.0234 778.835 20.1172C779.048 20.2422 779.26 20.3984 779.402 20.6172C779.473 20.7734 779.544 20.9297 779.544 21.0859C779.544 21.2734 779.508 21.4609 779.437 21.6484C779.26 22.1484 778.941 22.4922 778.41 22.6797C777.843 22.8672 777.029 22.9297 775.789 22.9609H760.205L757.761 28.9297H774.408C775.966 28.9297 778.835 28.9297 781.598 27.8984C784.325 26.8672 786.982 24.8047 788.115 20.6797C788.54 19.1172 788.398 17.8672 787.725 16.8672C787.017 15.8672 785.777 15.1484 783.971 14.7109C783.971 14.7109 783.581 14.6172 783.085 14.4922C782.625 14.3672 782.058 14.2422 781.775 14.1484C781.314 14.0234 780.96 13.8047 780.748 13.4922C780.535 13.1797 780.464 12.8359 780.606 12.4609C780.748 12.0859 781.031 11.7734 781.456 11.5547C781.881 11.3359 782.483 11.2109 783.156 11.2109H792.826C792.897 11.1172 792.967 11.0234 793.038 10.9297C794.738 8.71094 796.899 6.92969 799.237 5.64844Z" fill="white"/>
<path d="M799.237 5.64844H784.113C781.739 5.64844 779.402 5.64844 777.348 6.58594C775.258 7.52344 773.451 9.36719 772.035 13.0859C771.716 13.8984 771.574 14.5859 771.539 15.1797C771.503 15.7734 771.645 16.3047 771.893 16.7422C772.212 17.2734 772.708 17.8047 773.381 18.2109C774.018 18.6484 774.797 18.9922 775.612 19.2109C775.647 19.2109 776.072 19.3359 776.604 19.4609C777.135 19.5859 777.737 19.7422 778.127 19.8672C778.339 19.9297 778.623 20.0234 778.835 20.1172C779.048 20.2422 779.26 20.3984 779.402 20.6172C779.473 20.7734 779.544 20.9297 779.544 21.0859C779.544 21.2734 779.508 21.4609 779.437 21.6484C779.26 22.1484 778.941 22.4922 778.41 22.6797C777.843 22.8672 777.029 22.9297 775.789 22.9609H760.24L757.761 28.8984H774.408C775.966 28.8984 778.835 28.8984 781.598 27.8672C784.361 26.8359 786.982 24.7734 788.115 20.6484C788.54 19.0859 788.398 17.8359 787.725 16.8359C787.017 15.8359 785.777 15.1172 783.971 14.6797C783.971 14.6797 783.546 14.5859 783.085 14.4609C782.625 14.3359 782.058 14.2109 781.775 14.1172C781.314 13.9922 780.96 13.7734 780.748 13.4609C780.535 13.1484 780.464 12.8047 780.606 12.4297C780.748 12.0547 781.031 11.7422 781.456 11.5234C781.881 11.3047 782.483 11.1797 783.156 11.1797H792.826C792.897 11.0859 792.967 10.9922 793.038 10.8984C794.738 8.67969 796.899 6.89844 799.237 5.64844Z" fill="white"/>
<path d="M881.515 5.67969C882.046 6.05469 882.471 6.46094 882.861 6.92969C883.817 8.14844 884.171 9.55469 883.959 11.2109H888.811L881.479 28.9609H888.776L896.108 11.2109H905.494L907.76 5.67969H881.515Z" fill="white"/>
<path d="M881.129 7.96094C879.925 6.42969 877.481 5.67969 873.656 5.67969H864.766L855.167 28.9297H863.313L866.82 20.7422C866.997 21.0859 869.051 28.9297 869.051 28.9297H877.623C877.623 28.9297 876.064 23.1484 874.931 20.8359C874.648 20.2422 874.329 19.5547 873.904 18.9922C876.312 18.2109 879.819 16.4922 881.271 13.0547C882.192 10.9297 882.121 9.21094 881.129 7.96094ZM874.045 13.0859C873.266 14.9609 871.849 16.0859 869.193 16.0859H867.812L870.185 10.4609H871.531C873.975 10.4922 874.895 11.1172 874.045 13.0859Z" fill="white"/>
<path d="M814.077 7.83594C812.766 6.17969 810.499 5.33594 807.382 5.33594C805.328 5.33594 803.345 5.74219 801.467 6.52344C798.811 7.64844 796.367 9.49219 794.384 11.9609C793.108 13.5547 792.01 15.4297 791.125 17.4922C789.496 21.3984 789.531 24.5859 791.196 26.6797C792.152 27.8672 794.1 29.2734 798.067 29.2734C805.293 29.2734 810.712 25.0859 814.147 16.8359C815.068 14.6797 816.273 10.5859 814.077 7.83594ZM806.32 17.1797C804.053 22.6484 802.424 23.9922 799.944 23.9922C797.536 23.9922 796.686 22.6484 798.953 17.2109C800.617 13.1484 802.813 10.5547 805.434 10.5547C807.949 10.5859 808.516 11.8672 806.32 17.1797Z" fill="white"/>
<path d="M843.016 5.64844H827.609C823.288 5.64844 820.1 7.58594 818.577 11.1797L811.245 28.8984H819.25L823.004 19.7734H830.088L832.107 14.8984H825.059L826.192 12.0859C826.44 11.5859 827.007 11.1797 827.821 11.1797C828.282 11.1797 833.488 11.1797 836.18 11.1797C836.251 11.0859 836.322 10.9922 836.393 10.8984C838.164 8.71094 840.678 6.92969 843.016 5.64844Z" fill="white"/>
<path d="M857.752 7.83594C856.442 6.17969 854.175 5.33594 851.058 5.33594C849.004 5.33594 847.02 5.74219 845.143 6.52344C842.486 7.64844 840.042 9.49219 838.094 11.9609C836.819 13.5547 835.721 15.4297 834.836 17.4922C833.207 21.3984 833.242 24.5859 834.907 26.6797C835.863 27.8672 837.811 29.2734 841.778 29.2734C849.004 29.2734 854.423 25.0859 857.858 16.8359C858.744 14.6797 859.948 10.5859 857.752 7.83594ZM850.031 17.1797C847.764 22.6484 846.135 23.9922 843.655 23.9922C841.247 23.9922 840.397 22.6484 842.664 17.2109C844.328 13.1484 846.524 10.5547 849.145 10.5547C851.625 10.5859 852.227 11.8672 850.031 17.1797Z" fill="white"/>
<path d="M881.515 5.64844C882.046 6.02344 882.471 6.42969 882.861 6.89844C883.817 8.11719 884.171 9.52344 883.959 11.1797H888.811L881.479 28.9297H888.776L896.108 11.1797H905.494L907.76 5.64844H881.515Z" fill="white"/>
<path d="M881.16 7.92969C879.956 6.39844 877.512 5.64844 873.687 5.64844H864.797L855.198 28.8984H863.345L866.851 20.7109C867.028 21.0547 869.083 28.8984 869.083 28.8984H877.654C877.654 28.8984 876.096 23.1172 874.962 20.8047C874.679 20.2109 874.36 19.5234 873.935 18.9609C876.343 18.1797 879.85 16.4609 881.302 13.0234C882.188 10.8984 882.117 9.17969 881.16 7.92969ZM874.041 13.0547C873.262 14.8984 871.845 16.0547 869.189 16.0547H867.807L870.181 10.4297H871.526C873.97 10.4609 874.891 11.0859 874.041 13.0547Z" fill="white"/>
<path d="M814.077 7.80469C812.766 6.14844 810.499 5.30469 807.382 5.30469C805.328 5.30469 803.345 5.71094 801.467 6.49219C798.811 7.61719 796.367 9.46094 794.384 11.9297C793.108 13.5234 792.01 15.3984 791.125 17.4609C789.496 21.3672 789.531 24.5547 791.196 26.6484C792.152 27.8359 794.1 29.2422 798.067 29.2422C805.293 29.2422 810.712 25.0547 814.147 16.8047C815.068 14.6484 816.273 10.5547 814.077 7.80469ZM806.32 17.1484C804.053 22.6172 802.424 23.9609 799.944 23.9609C797.536 23.9609 796.686 22.6172 798.953 17.1797C800.617 13.1172 802.813 10.5234 805.434 10.5234C807.949 10.5547 808.516 11.8359 806.32 17.1484Z" fill="white"/>
<path d="M843.016 5.64844H827.609C823.288 5.64844 820.1 7.58594 818.577 11.1797L811.245 28.8984H819.25L823.004 19.7734H830.088L832.107 14.8984H825.059L826.192 12.0859C826.44 11.5859 827.007 11.1797 827.821 11.1797C828.282 11.1797 833.488 11.1797 836.18 11.1797C836.251 11.0859 836.322 10.9922 836.393 10.8984C838.164 8.67969 840.678 6.89844 843.016 5.64844Z" fill="white"/>
<path d="M857.787 7.80469C856.477 6.14844 854.21 5.30469 851.093 5.30469C849.039 5.30469 847.055 5.71094 845.178 6.49219C842.522 7.61719 840.078 9.46094 838.094 11.9297C836.819 13.5234 835.721 15.3984 834.836 17.4609C833.207 21.3672 833.242 24.5547 834.907 26.6484C835.828 27.8359 837.811 29.2422 841.778 29.2422C849.004 29.2422 854.423 25.0547 857.858 16.8047C858.779 14.6484 859.948 10.5547 857.787 7.80469ZM850.031 17.1484C847.764 22.6172 846.135 23.9609 843.655 23.9609C841.247 23.9609 840.397 22.6172 842.664 17.1797C844.328 13.1172 846.524 10.5234 849.145 10.5234C851.66 10.5547 852.227 11.8359 850.031 17.1484Z" fill="white"/>
</g>
<g clip-path="url(#clip2_273_20)">
<path d="M135.161 15.1094C135.224 18.7344 138.514 19.9844 138.578 19.9844C138.578 20.0469 138.071 21.7344 136.806 23.4219C135.731 24.9219 134.655 26.3594 132.947 26.3594C131.239 26.3594 130.732 25.4219 128.771 25.4219C126.81 25.4219 126.24 26.3594 124.659 26.4219C123.014 26.4844 121.748 24.8594 120.673 23.3594C118.522 20.3594 116.877 14.8594 119.091 11.1719C120.167 9.35938 122.191 8.17188 124.342 8.17188C125.987 8.17188 127.506 9.23438 128.518 9.23438C129.53 9.23438 131.365 7.92188 133.326 8.10938C134.149 8.17188 136.49 8.42188 137.945 10.4844C137.755 10.6094 135.161 12.1094 135.161 15.1094ZM131.998 6.17188C132.883 5.17188 133.453 3.73438 133.326 2.29688C132.061 2.35938 130.543 3.10938 129.594 4.10938C128.771 4.98438 128.075 6.48438 128.265 7.85938C129.657 7.98438 131.112 7.17188 131.998 6.17188Z" fill="white"/>
<path d="M144.773 4.39724C145.414 4.2737 146.118 4.21193 146.95 4.08839C147.718 4.02662 148.614 3.96484 149.574 3.96484C150.919 3.96484 152.071 4.15016 153.095 4.45901C154.055 4.76787 154.888 5.20027 155.528 5.81798C156.04 6.31215 156.488 6.92987 156.808 7.67112C157.128 8.41238 157.256 9.21541 157.256 10.142C157.256 11.2539 157.064 12.2422 156.616 13.107C156.168 13.9718 155.656 14.6513 154.888 15.269C154.183 15.8249 153.287 16.2573 152.327 16.5662C151.367 16.8751 150.279 16.9986 149.062 16.9986C147.974 16.9986 147.142 16.9368 146.374 16.7515V26.1408H144.773V4.39724ZM146.374 15.3925C146.758 15.5161 147.206 15.5779 147.654 15.6396C148.102 15.7014 148.614 15.7014 149.19 15.7014C151.239 15.7014 152.775 15.269 153.927 14.3424C155.016 13.4159 155.592 12.1187 155.592 10.3273C155.592 9.46249 155.464 8.72124 155.144 8.10352C154.824 7.48581 154.439 6.92987 153.863 6.55924C153.351 6.12684 152.711 5.87976 151.943 5.63267C151.175 5.44736 150.407 5.32381 149.446 5.32381C148.742 5.32381 148.102 5.32381 147.59 5.38558C147.078 5.44736 146.63 5.50913 146.31 5.5709L146.374 15.3925Z" fill="white"/>
<path d="M169.804 22.4331C169.804 23.0508 169.804 23.6685 169.868 24.348C169.868 24.9657 169.932 25.5835 170.06 26.2012H168.588L168.268 23.9156H168.204C168.012 24.2245 167.755 24.5333 167.435 24.8422C167.115 25.1511 166.731 25.3981 166.347 25.6452C165.899 25.8923 165.451 26.0776 164.939 26.2629C164.427 26.3865 163.851 26.51 163.211 26.51C162.442 26.51 161.738 26.3865 161.162 26.1394C160.586 25.8923 160.074 25.5835 159.69 25.1511C159.306 24.7187 159.05 24.2863 158.858 23.7921C158.666 23.2979 158.602 22.742 158.602 22.2478C158.602 20.3947 159.434 18.9739 161.034 17.9856C162.634 16.9972 165.067 16.5031 168.332 16.5648V16.1324C168.332 15.7 168.268 15.2676 168.204 14.7117C168.14 14.1558 167.948 13.6616 167.691 13.1674C167.435 12.6732 166.987 12.3026 166.475 11.932C165.963 11.6231 165.195 11.4378 164.299 11.4378C163.595 11.4378 162.89 11.5614 162.25 11.7467C161.546 11.932 160.97 12.2409 160.394 12.6115L159.882 11.4996C160.586 11.0054 161.354 10.6966 162.122 10.4495C162.89 10.2642 163.659 10.1406 164.491 10.1406C165.643 10.1406 166.539 10.3259 167.243 10.6966C167.948 11.0672 168.524 11.5614 168.908 12.1173C169.292 12.6732 169.612 13.3527 169.74 14.094C169.868 14.8352 169.932 15.5147 169.932 16.256L169.804 22.4331ZM168.204 17.7385C167.371 17.7385 166.475 17.7385 165.515 17.862C164.555 17.9238 163.723 18.1091 162.954 18.418C162.186 18.7268 161.482 19.1592 160.97 19.7152C160.458 20.2711 160.202 21.0124 160.202 21.9389C160.202 23.0508 160.522 23.8539 161.162 24.4098C161.802 24.904 162.57 25.2128 163.339 25.2128C163.979 25.2128 164.555 25.1511 165.067 24.9657C165.579 24.7804 166.027 24.5333 166.411 24.2863C166.795 23.9774 167.115 23.6685 167.371 23.2979C167.627 22.9273 167.82 22.5567 167.948 22.186C168.076 21.7536 168.14 21.4448 168.14 21.2595L168.204 17.7385Z" fill="white"/>
<path d="M172.875 10.4531L176.972 20.6454C177.228 21.2013 177.42 21.819 177.612 22.375C177.804 22.9927 177.996 23.5486 178.124 24.0428H178.188C178.316 23.5486 178.508 23.0545 178.701 22.4368C178.893 21.819 179.149 21.2013 179.405 20.5836L183.245 10.4531H184.91L180.301 21.9426C179.853 23.178 179.405 24.2899 178.957 25.2782C178.508 26.2666 178.124 27.1314 177.676 27.9344C177.228 28.7374 176.844 29.4169 176.396 30.0346C175.948 30.6523 175.436 31.1465 174.924 31.6407C174.284 32.1966 173.707 32.5673 173.195 32.8143C172.683 33.0614 172.299 33.2467 172.107 33.3085L171.595 32.0113C171.979 31.826 172.427 31.5789 172.939 31.3318C173.451 31.023 173.9 30.6523 174.412 30.2199C174.796 29.8493 175.244 29.2934 175.756 28.6757C176.268 28.058 176.652 27.2549 177.036 26.3284C177.164 25.9577 177.228 25.7724 177.228 25.6489C177.228 25.5253 177.164 25.2782 177.036 24.9694L171.211 10.4531H172.875Z" fill="white"/>
</g>
<path d="M675.819 7.34536V14.2704H680.088C681.084 14.2704 681.938 13.9384 682.602 13.2269C683.266 12.5629 683.645 11.7091 683.645 10.8079C683.645 9.85924 683.313 9.10033 682.602 8.38886C681.938 7.67738 681.084 7.34536 680.088 7.34536H675.819ZM675.819 16.642V24.658H673.258V4.87891H679.993C681.701 4.87891 683.171 5.44809 684.357 6.58645C685.59 7.72481 686.159 9.10033 686.159 10.7604C686.159 12.4206 685.543 13.8435 684.357 14.9344C683.171 16.0728 681.748 16.642 679.993 16.642H675.819Z" fill="white"/>
<path d="M689.57 20.5293C689.57 21.1934 689.854 21.7625 690.423 22.1894C690.993 22.6163 691.657 22.8535 692.416 22.8535C693.459 22.8535 694.455 22.474 695.261 21.6677C696.115 20.8613 696.495 19.9601 696.495 18.8692C695.688 18.2526 694.597 17.9206 693.175 17.9206C692.131 17.9206 691.277 18.1577 690.566 18.6795C689.902 19.2012 689.57 19.7704 689.57 20.5293ZM692.842 10.7109C694.74 10.7109 696.21 11.2327 697.301 12.2288C698.392 13.2248 698.914 14.6003 698.914 16.3553V24.7033H696.495V22.806H696.4C695.356 24.3713 693.933 25.1302 692.226 25.1302C690.708 25.1302 689.475 24.7033 688.479 23.8021C687.483 22.9009 686.961 21.81 686.961 20.4819C686.961 19.0589 687.483 17.968 688.574 17.1617C689.617 16.3079 691.04 15.9284 692.795 15.9284C694.313 15.9284 695.546 16.213 696.542 16.7822V16.213C696.542 15.3118 696.21 14.6003 695.499 13.9837C694.787 13.3671 693.981 13.0351 693.032 13.0351C691.609 13.0351 690.471 13.6517 689.665 14.8375L687.435 13.4145C688.621 11.5647 690.423 10.7109 692.842 10.7109Z" fill="white"/>
<path d="M712.761 11.1406L704.271 30.6351H701.662L704.792 23.8049L699.195 11.1406H701.994L706.025 20.8641H706.073L709.962 11.1406H712.761Z" fill="white"/>
<path d="M587.353 16.027V12.9439H597.599C597.694 13.4657 597.741 14.1297 597.741 14.8412C597.741 17.1179 597.124 19.9638 595.085 22.0034C593.14 24.043 590.579 25.1339 587.259 25.1339C581.092 25.1339 575.875 20.1061 575.875 13.94C575.875 7.77386 581.045 2.74609 587.211 2.74609C590.626 2.74609 593.045 4.07418 594.895 5.82916L592.761 7.96359C591.433 6.73036 589.678 5.78173 587.259 5.78173C582.753 5.78173 579.243 9.43397 579.243 13.94C579.243 18.446 582.753 22.0983 587.259 22.0983C590.199 22.0983 591.86 20.9125 592.903 19.869C593.757 19.0152 594.326 17.7345 594.563 16.0744H587.353V16.027Z" fill="white"/>
<path d="M610.22 17.9206C610.22 15.3118 608.322 13.5568 606.14 13.5568C603.959 13.5568 602.061 15.3118 602.061 17.9206C602.061 20.4819 603.959 22.2843 606.14 22.2843C608.322 22.2843 610.22 20.4819 610.22 17.9206ZM613.35 17.9206C613.35 22.0946 610.077 25.1302 606.093 25.1302C602.109 25.1302 598.836 22.0471 598.836 17.9206C598.836 13.7466 602.109 10.7109 606.093 10.7109C610.125 10.7109 613.35 13.7466 613.35 17.9206Z" fill="white"/>
<path d="M626.009 17.9206C626.009 15.3118 624.111 13.5568 621.929 13.5568C619.748 13.5568 617.85 15.3118 617.85 17.9206C617.85 20.4819 619.748 22.2843 621.929 22.2843C624.111 22.2843 626.009 20.4819 626.009 17.9206ZM629.139 17.9206C629.139 22.0946 625.866 25.1302 621.882 25.1302C617.898 25.1302 614.625 22.0946 614.625 17.9206C614.625 13.7466 617.898 10.7109 621.882 10.7109C625.914 10.7109 629.139 13.7466 629.139 17.9206Z" fill="white"/>
<path d="M641.52 17.9211C641.52 15.4072 639.813 13.51 637.678 13.51C635.497 13.51 633.647 15.3598 633.647 17.9211C633.647 20.435 635.449 22.2848 637.678 22.2848C639.813 22.2848 641.52 20.435 641.52 17.9211ZM644.319 11.1384V24.0873C644.319 29.3996 641.188 31.5815 637.441 31.5815C633.931 31.5815 631.844 29.2573 631.038 27.3126L633.789 26.1743C634.263 27.36 635.497 28.7356 637.441 28.7356C639.813 28.7356 641.283 27.2652 641.283 24.5141V23.4706H641.188C640.477 24.3244 639.101 25.0833 637.394 25.0833C633.789 25.0833 630.469 21.9528 630.469 17.9211C630.469 13.842 633.789 10.6641 637.394 10.6641C639.101 10.6641 640.477 11.423 641.188 12.2767H641.283V11.0909L644.319 11.1384Z" fill="white"/>
<path d="M649.678 3.55078H646.5V24.7053H649.678V3.55078Z" fill="white"/>
<path d="M654.326 17.6834L660.777 14.9798C660.444 14.0786 659.354 13.462 658.12 13.462C656.508 13.462 654.278 14.8849 654.326 17.6834ZM661.915 20.2922L664.381 21.9048C663.575 23.0906 661.678 25.1302 658.357 25.1302C654.278 25.1302 651.195 21.9523 651.195 17.9206C651.195 13.6043 654.278 10.7109 657.978 10.7109C661.725 10.7109 663.575 13.6991 664.144 15.3118L664.476 16.1182L654.848 20.1024C655.606 21.5254 656.745 22.2843 658.357 22.2843C659.97 22.2843 661.109 21.478 661.915 20.2922Z" fill="white"/>
<g clip-path="url(#clip3_273_20)">
<path d="M31.6386 28.9321H25.7031L29.4357 5.73828H35.3712L31.6386 28.9321Z" fill="white"/>
<path d="M20.6823 5.7417L14.9916 21.6797L14.3185 18.2688L12.2992 7.78821C12.2992 7.78821 12.0545 5.67969 9.48449 5.67969H0.122381L0 6.1138C0 6.1138 2.87594 6.73395 6.24141 8.78046L11.4426 28.9355H17.6228L27.1073 5.7417H20.6823Z" fill="white"/>
<path d="M67.4928 28.9321H72.9388L68.1659 5.73828H63.3931C61.1902 5.73828 60.6395 7.47472 60.6395 7.47472L51.8281 28.9321H58.0083L59.2322 25.4592H66.8197L67.4928 28.9321ZM60.9455 20.684L64.0662 12.0018L65.8407 20.684H60.9455Z" fill="white"/>
<path d="M52.2544 11.3207L53.1111 6.35944C53.1111 6.35944 50.4799 5.36719 47.7263 5.36719C44.7892 5.36719 37.7523 6.66951 37.7523 13.0571C37.7523 19.0726 46.013 19.1346 46.013 22.2974C46.013 25.4602 38.609 24.9021 36.1613 22.9176L35.3047 28.1269C35.3047 28.1269 37.9359 29.4292 42.0356 29.4292C46.0742 29.4292 52.2544 27.3207 52.2544 21.4912C52.2544 15.4757 43.9325 14.9176 43.9325 12.2509C43.9325 9.52223 49.7456 9.89432 52.2544 11.3207Z" fill="white"/>
<path d="M14.3185 18.2068L12.2992 7.78821C12.2992 7.78821 12.0545 5.67969 9.48449 5.67969H0.122381L0 6.1138C0 6.1138 4.52808 7.04403 8.8114 10.6409C12.9723 13.9898 14.3185 18.2068 14.3185 18.2068Z" fill="white"/>
</g>
<defs>
<clipPath id="clip0_273_20">
<rect width="86" height="30" fill="white" transform="translate(328.217 2.30469)"/>
</clipPath>
<clipPath id="clip1_273_20">
<rect width="150" height="24" fill="white" transform="translate(757.761 5.30469)"/>
</clipPath>
<clipPath id="clip2_273_20">
<rect width="67" height="31" fill="white" transform="translate(118 2.30469)"/>
</clipPath>
<clipPath id="clip3_273_20">
<rect width="73" height="24" fill="white" transform="translate(0 5.30469)"/>
</clipPath>
</defs>
</svg>
