<svg width="420" height="492" viewBox="0 0 420 492" fill="none" xmlns="http://www.w3.org/2000/svg">
<path d="M298.595 328.453V149.506C333.683 174.07 375.788 188.103 419.648 188.103V119.682C393.332 114.419 370.525 100.384 352.981 81.0856C324.911 63.5418 305.613 33.7174 300.35 0.38414H235.438V351.262C233.683 389.858 202.104 421.437 161.754 421.437C137.192 421.437 116.14 409.155 102.105 391.611C79.2978 381.085 63.5084 356.523 63.5084 328.453C63.5084 288.103 96.8416 254.771 137.192 254.771C144.21 254.771 151.227 256.524 158.245 258.278V189.857C70.5259 191.612 0.350677 263.543 0.350677 351.262C0.350677 393.367 16.1401 431.962 44.2102 461.786C70.5259 479.33 102.105 491.612 137.192 491.612C226.666 489.858 298.595 416.172 298.595 328.453Z" fill="#ff9155"/>
</svg>
