<svg width="758" height="534" viewBox="0 0 758 534" fill="none" xmlns="http://www.w3.org/2000/svg">
<path d="M301.579 379.557V154.447L499.431 267.005L301.579 379.557ZM741.677 83.6142C732.97 50.8335 707.318 25.0173 674.751 16.256C615.718 0.333374 378.998 0.333374 378.998 0.333374C378.998 0.333374 142.282 0.333374 83.2494 16.256C50.6816 25.0173 25.0299 50.8335 16.3235 83.6142C0.504089 143.03 0.504089 267.002 0.504089 267.002C0.504089 267.002 0.504089 390.966 16.3235 450.386C25.0299 483.17 50.6784 508.983 83.2494 517.751C142.282 533.667 378.998 533.667 378.998 533.667C378.998 533.667 615.718 533.667 674.751 517.751C707.318 508.983 732.97 483.17 741.677 450.386C757.496 390.966 757.496 266.998 757.496 266.998C757.496 266.998 757.496 143.03 741.677 83.6142" fill="#ff9155"/>
</svg>
